<svg xmlns="http://www.w3.org/2000/svg" width="652" height="152" fill="none" viewBox="0 0 652 152">
  <rect width="416" height="150" x="1" y="1" fill="url(#paint0_linear)" stroke="url(#paint1_linear)" rx="15"/>
  <rect width="650" height="150" x="1" y="1" fill="url(#paint2_linear)" stroke="url(#paint3_linear)" stroke-width="2" rx="15"/>
  <g opacity=".46">
    <path fill="url(#paint4_linear)" d="M631 76h-2.252v-1.263H631V76zm0-3.41h-2.252v-2.273H631v2.273z"/>
    <path fill="url(#paint5_linear)" d="M623.869 73.98h-2.252v-2.274h2.252v2.273zm0-4.547h-2.252v-2.274h2.252v2.273zm0-4.42h-2.252v-2.274h2.252v2.273z"/>
    <path fill="url(#paint6_linear)" d="M616.738 76h-2.252v-1.137h2.252V76zm0-3.41h-2.252v-2.273h2.252v2.273zm0-4.42h-2.252v-2.274h2.252v2.274zm0-4.42h-2.252v-2.274h2.252v2.273zm0-4.421h-2.252v-2.274h2.252v2.274z"/>
    <path fill="url(#paint7_linear)" d="M609.607 75.242h-2.251V72.97h2.251v2.273zm0-4.42h-2.251v-2.274h2.251v2.274z"/>
    <path fill="url(#paint8_linear)" d="M602.477 76h-2.252v-.884h2.252V76zm0-3.031h-2.252v-2.273h2.252v2.273zm0-4.42h-2.252v-2.274h2.252v2.273zm0-4.547h-2.252v-2.274h2.252v2.274z"/>
    <path fill="url(#paint9_linear)" d="M595.346 74.863h-2.252V72.59h2.252v2.273zm0-4.546h-2.252v-2.274h2.252v2.274zm0-4.42h-2.252v-2.274h2.252v2.273zm0-4.421h-2.252v-2.274h2.252v2.274zm0-4.42h-2.252v-2.274h2.252v2.273zm0-4.547h-2.252v-2.274h2.252v2.274z"/>
    <path fill="url(#paint10_linear)" d="M588.09 76h-2.252v-.632h2.252V76zm0-2.778h-2.252v-2.274h2.252v2.274zm0-4.421h-2.252v-2.273h2.252V68.8z"/>
    <path fill="url(#paint11_linear)" d="M580.959 76h-2.252v-2.147h2.252V76zm0-4.294h-2.252v-2.273h2.252v2.273zm0-4.547h-2.252v-2.273h2.252v2.273zm0-4.42h-2.252v-2.274h2.252v2.274zm0-4.42h-2.252v-2.274h2.252v2.273z"/>
    <path fill="url(#paint12_linear)" d="M573.828 73.98h-2.252v-2.274h2.252v2.273zm0-4.421h-2.252v-2.273h2.252v2.273zm0-4.42h-2.252v-2.274h2.252v2.273zm0-4.421h-2.252v-2.273h2.252v2.273zm0-4.547h-2.252v-2.273h2.252v2.273zm0-4.42h-2.252v-2.273h2.252v2.273zm0-4.42h-2.252v-2.274h2.252v2.273z"/>
    <path fill="url(#paint13_linear)" d="M566.572 75.747h-2.252v-2.273h2.252v2.273zm0-4.42h-2.252v-2.273h2.252v2.273zm0-4.547h-2.252v-2.273h2.252v2.273zm0-4.42h-2.252v-2.273h2.252v2.273zm0-4.42h-2.252v-2.274h2.252v2.274zm0-4.42h-2.252v-2.274h2.252v2.273zm0-4.548h-2.252V46.7h2.252v2.273z"/>
    <path fill="url(#paint14_linear)" d="M559.441 76h-2.252v-2.273h2.252V76zm0-4.547h-2.252V69.18h2.252v2.273zm0-4.42h-2.252V64.76h2.252v2.273zm0-4.42h-2.252v-2.274h2.252v2.273zm0-4.421h-2.252v-2.273h2.252v2.273zm0-4.547h-2.252v-2.273h2.252v2.273zm0-4.42h-2.252v-2.273h2.252v2.273zm0-4.42h-2.252V42.53h2.252v2.273zm0-4.547h-2.252v-2.274h2.252v2.274zm0-4.42h-2.252v-2.274h2.252v2.273zm0-4.421h-2.252v-2.273h2.252v2.273z"/>
    <path fill="url(#paint15_linear)" d="M550.184 76v-1.768h2.252V76h-2.252zm0-4.041v-2.274h2.252v2.273h-2.252zm0-4.42v-2.274h2.252v2.273h-2.252zm0-4.421v-2.274h2.252v2.274h-2.252zm0-4.547v-2.273h2.252v2.273h-2.252zm0-4.42v-2.274h2.252v2.273h-2.252zm0-4.42v-2.274h2.252v2.273h-2.252zm0-4.421v-2.274h2.252v2.274h-2.252zm0-4.547V38.49h2.252v2.273h-2.252zm0-4.42v-2.274h2.252v2.274h-2.252zm0-4.42v-2.274h2.252v2.273h-2.252zm0-4.548v-2.273h2.252v2.273h-2.252zm0-4.42v-2.273h2.252v2.273h-2.252z"/>
    <path fill="url(#paint16_linear)" d="M545.18 76h-2.252v-1.39h2.252V76zm0-3.663h-2.252v-2.273h2.252v2.273zm0-4.42h-2.252v-2.273h2.252v2.273zm0-4.42h-2.252v-2.274h2.252v2.273zm0-4.42h-2.252v-2.274h2.252v2.273zm0-4.548h-2.252v-2.273h2.252v2.273zm0-4.42h-2.252v-2.273h2.252v2.273zm0-4.42h-2.252v-2.274h2.252v2.274zm0-4.42h-2.252v-2.274h2.252v2.273zm0-4.548h-2.252v-2.147h2.252v2.147zm0-4.42h-2.252v-2.273h2.252V32.3z"/>
    <path fill="url(#paint17_linear)" d="M538.049 75.495h-2.252V73.22h2.252v2.274zm0-4.547h-2.252v-2.273h2.252v2.273zm0-4.42h-2.252v-2.274h2.252v2.274zm0-4.42h-2.252v-2.274h2.252v2.273zm0-4.421h-2.252v-2.273h2.252v2.273zm0-4.547h-2.252v-2.147h2.252v2.147zm0-4.42h-2.252v-2.274h2.252v2.274zm0-4.42h-2.252v-2.274h2.252v2.273zm0-4.421h-2.252v-2.273h2.252v2.273zm0-4.547h-2.252V33.06h2.252v2.273zm0-4.42h-2.252v-2.274h2.252v2.274zm0-4.42h-2.252v-2.274h2.252v2.273zm0-4.547h-2.252V19.67h2.252v2.274zm0-4.42h-2.252v-2.148h2.252v2.147zm0-4.421h-2.252V10.83h2.252v2.274z"/>
    <path fill="url(#paint18_linear)" d="M530.918 76h-2.252v-1.642h2.252V76zm0-3.915h-2.252v-2.147h2.252v2.147zm0-4.42h-2.252V65.39h2.252v2.273zm0-4.421h-2.252v-2.273h2.252v2.273zm0-4.547h-2.252v-2.273h2.252v2.273z"/>
    <path fill="url(#paint19_linear)" d="M523.787 75.242h-2.252V72.97h2.252v2.273zm0-4.42h-2.252v-2.274h2.252v2.274zm0-4.42h-2.252v-2.274h2.252v2.273zm0-4.547h-2.252V59.58h2.252v2.274zm0-4.42h-2.252V55.16h2.252v2.273zm0-4.421h-2.252V50.74h2.252v2.274zm0-4.42h-2.252V46.32h2.252v2.273zm0-4.547h-2.252v-2.274h2.252v2.274z"/>
    <path fill="url(#paint20_linear)" d="M516.656 74.99h-2.252v-2.274h2.252v2.274zm0-4.547h-2.252V68.17h2.252v2.273zm0-4.42h-2.252v-2.274h2.252v2.273zm0-4.42h-2.252v-2.274h2.252v2.273zm0-4.548h-2.252v-2.273h2.252v2.273zm0-4.42h-2.252v-2.273h2.252v2.273zm0-4.42h-2.252V45.94h2.252v2.273zm0-4.42h-2.252V41.52h2.252v2.273zm0-4.548h-2.252V37.1h2.252v2.147zm0-4.42h-2.252v-2.273h2.252v2.273z"/>
    <path fill="url(#paint21_linear)" d="M509.525 76h-2.251v-2.273h2.251V76zm0-4.547h-2.251V69.18h2.251v2.273zm0-4.42h-2.251V64.76h2.251v2.273zm0-4.42h-2.251v-2.274h2.251v2.273zm0-4.547h-2.251v-2.274h2.251v2.274zm0-4.42h-2.251v-2.274h2.251v2.273zm0-4.421h-2.251v-2.273h2.251v2.273zm0-4.42h-2.251V42.53h2.251v2.273z"/>
    <path fill="url(#paint22_linear)" d="M502.269 74.232h-2.251v-2.273h2.251v2.273zm0-4.42h-2.251v-2.274h2.251v2.273zm0-4.421h-2.251v-2.273h2.251v2.273zm0-4.42h-2.251v-2.274h2.251v2.274zm0-4.547h-2.251V54.15h2.251v2.273zm0-4.42h-2.251V49.73h2.251v2.274zm0-4.421h-2.251V45.31h2.251v2.273z"/>
    <path fill="url(#paint23_linear)" d="M495.139 74.106h-2.252v-2.274h2.252v2.274zm0-4.42h-2.252v-2.274h2.252v2.273zm0-4.548h-2.252v-2.273h2.252v2.273zm0-4.42h-2.252v-2.147h2.252v2.147zm0-4.42h-2.252v-2.274h2.252v2.274z"/>
    <path fill="url(#paint24_linear)" d="M488.008 71.832h-2.252v2.274h2.252v-2.274z"/>
    <path fill="url(#paint25_linear)" d="M480.877 76h-2.252v-.126l2.252.126zm0-2.273h-2.252v-2.274h2.252v2.274zm0-4.42h-2.252v-2.274h2.252v2.273z"/>
    <path fill="url(#paint26_linear)" d="M473.621 75.116h-2.252v-2.273h2.252v2.273zm0-4.42h-2.252v-2.274h2.252v2.273zm0-4.42h-2.252v-2.274h2.252v2.273zm0-4.548h-2.252v-2.273h2.252v2.273z"/>
    <path fill="url(#paint27_linear)" d="M466.49 75.242h-2.252V72.97h2.252v2.273zm0-4.42h-2.252v-2.273h2.252v2.273zm0-4.42h-2.252v-2.274h2.252v2.273zm0-4.547h-2.252V59.58h2.252v2.274zm0-4.42h-2.252V55.16h2.252v2.273zm0-4.421h-2.252V50.74h2.252v2.274zm0-4.42h-2.252V46.32h2.252v2.273z"/>
    <path fill="url(#paint28_linear)" d="M459.359 74.106h-2.252v-2.274h2.252v2.274zm0-4.42h-2.252v-2.274h2.252v2.273zm0-4.421h-2.252V62.99h2.252v2.274zm0-4.42h-2.252V58.57h2.252v2.273zm0-4.547h-2.252v-2.274h2.252v2.274zm0-4.42h-2.252v-2.274h2.252v2.273zm0-4.421h-2.252v-2.274h2.252v2.274zm0-4.547h-2.252v-2.273h2.252v2.273zm0-4.42h-2.252v-2.274h2.252v2.274zm0-4.42h-2.252v-2.274h2.252v2.273z"/>
    <path fill="url(#paint29_linear)" d="M450.102 76v-.758h2.252V76h-2.252zm0-3.031v-2.273h2.252v2.273h-2.252z"/>
    <path fill="url(#paint30_linear)" d="M445.098 75.747h-2.252v-2.273h2.252v2.273zm0-4.546h-2.252v-2.274h2.252v2.274zm0-4.42h-2.252v-2.274h2.252v2.273z"/>
    <path fill="url(#paint31_linear)" d="M437.967 76h-2.252v-2.02h2.252V76zm0-4.168h-2.252V69.56h2.252v2.273zm0-4.42h-2.252v-2.274h2.252v2.274zm0-4.42h-2.252v-2.274h2.252v2.273zm0-4.547h-2.252V56.17h2.252v2.274zm0-4.42h-2.252V51.75h2.252v2.273z"/>
    <path fill="url(#paint32_linear)" d="M430.836 74.106h-2.252v-2.274h2.252v2.274zm0-4.547h-2.252v-2.147h2.252v2.147zm0-4.42h-2.252v-2.274h2.252v2.273zm0-4.421h-2.252v-2.273h2.252v2.273zm0-4.42h-2.252v-2.274h2.252v2.274zm0-4.547h-2.252v-2.273h2.252v2.273zm0-4.42h-2.252v-2.274h2.252v2.273zm0-4.421h-2.252v-2.273h2.252v2.273zm0-4.547h-2.252V36.09h2.252v2.273zm0-4.42h-2.252V31.67h2.252v2.273zm0-4.42h-2.252v-2.274h2.252v2.274zm0-4.42h-2.252v-2.274h2.252v2.273z"/>
    <path fill="url(#paint33_linear)" d="M423.705 75.747h-2.252v-2.273h2.252v2.273zm0-4.42h-2.252v-2.273h2.252v2.273zm0-4.547h-2.252v-2.273h2.252v2.273zm0-4.42h-2.252v-2.273h2.252v2.273zm0-4.42h-2.252v-2.274h2.252v2.274zm0-4.42h-2.252v-2.274h2.252v2.273zm0-4.548h-2.252V46.7h2.252v2.273zm0-4.42h-2.252v-2.273h2.252v2.273z"/>
    <path fill="url(#paint34_linear)" d="M416.574 75.621h-2.252v-2.273h2.252v2.273zm0-4.42h-2.252v-2.274h2.252v2.274zm0-4.547h-2.252v-2.273h2.252v2.273zm0-4.42h-2.252V59.96h2.252v2.273zm0-4.42h-2.252V55.54h2.252v2.273zm0-4.548h-2.252v-2.273h2.252v2.273zm0-4.42h-2.252v-2.273h2.252v2.273zm0-4.42h-2.252v-2.274h2.252v2.274zm0-4.42h-2.252v-2.274h2.252v2.273zm0-4.547h-2.252V33.31h2.252v2.148zm0-4.421h-2.252v-2.273h2.252v2.273z"/>
    <path fill="url(#paint35_linear)" d="M409.318 76h-2.252v-1.768h2.252V76zm0-3.915h-2.252V69.81h2.252v2.274zm0-4.547h-2.252v-2.273h2.252v2.273zm0-4.42h-2.252v-2.274h2.252v2.274zm0-4.42h-2.252v-2.274h2.252v2.273zm0-4.421h-2.252v-2.273h2.252v2.273zm0-4.547h-2.252v-2.273h2.252v2.273zm0-4.42h-2.252v-2.274h2.252v2.274zm0-4.42h-2.252v-2.274h2.252v2.273zm0-4.421h-2.252v-2.273h2.252v2.273zm0-4.547h-2.252V29.65h2.252v2.273zm0-4.42h-2.252v-2.274h2.252v2.274zm0-4.42h-2.252v-2.274h2.252v2.273zm0-4.547h-2.252V16.26h2.252v2.274zm0-4.42h-2.252v-2.148h2.252v2.147zm0-4.421h-2.252V7.42h2.252v2.274zm0-4.42h-2.252V3h2.252v2.273z"/>
    <path fill="url(#paint36_linear)" d="M402.187 74.99h-2.251v-2.274h2.251v2.274zm0-4.547h-2.251V68.17h2.251v2.273zm0-4.42h-2.251v-2.274h2.251v2.273zm0-4.42h-2.251v-2.274h2.251v2.273zm0-4.548h-2.251v-2.273h2.251v2.273zm0-4.42h-2.251v-2.273h2.251v2.273zm0-4.42h-2.251V45.94h2.251v2.274zm0-4.42h-2.251V41.52h2.251v2.273zm0-4.548h-2.251V37.1h2.251v2.147zm0-4.42h-2.251v-2.273h2.251v2.273zm0-4.42h-2.251v-2.274h2.251v2.274zm0-4.42h-2.251v-2.274h2.251v2.273zm0-4.547h-2.251v-2.274h2.251v2.273zm0-4.421h-2.251v-2.273h2.251v2.273zm0-4.42h-2.251v-2.274h2.251V12.6z"/>
    <path fill="url(#paint37_linear)" d="M395.057 74.863h-2.252V72.59h2.252v2.273zm0-4.546h-2.252v-2.274h2.252v2.274zm0-4.42h-2.252v-2.274h2.252v2.273zm0-4.421h-2.252v-2.274h2.252v2.274zm0-4.547h-2.252v-2.147h2.252v2.147zm0-4.42h-2.252v-2.274h2.252v2.274zm0-4.42h-2.252v-2.274h2.252v2.273zm0-4.421h-2.252v-2.273h2.252v2.273zm0-4.547h-2.252v-2.273h2.252v2.273zm0-4.42h-2.252v-2.274h2.252v2.274zm0-4.42h-2.252v-2.274h2.252v2.273zm0-4.421h-2.252v-2.273h2.252v2.273z"/>
    <path fill="url(#paint38_linear)" d="M387.926 76h-2.252v-1.263h2.252V76zm0-3.536h-2.252V70.19h2.252v2.274zm0-4.42h-2.252V65.77h2.252v2.273zm0-4.421h-2.252V61.35h2.252v2.273zm0-4.42h-2.252v-2.274h2.252v2.273zm0-4.547h-2.252v-2.274h2.252v2.274zm0-4.42h-2.252v-2.274h2.252v2.273zm0-4.421h-2.252v-2.273h2.252v2.273z"/>
    <path fill="url(#paint39_linear)" d="M380.67 76h-2.252v-.632h2.252V76zm0-2.778h-2.252v-2.274h2.252v2.274zm0-4.421h-2.252v-2.273h2.252V68.8z"/>
    <path fill="url(#paint40_linear)" d="M373.539 74.61h-2.252v-2.146h2.252v2.147zm0-4.42h-2.252v-2.273h2.252v2.273zm0-4.42h-2.252v-2.273h2.252v2.273zm0-4.547h-2.252V58.95h2.252v2.273z"/>
    <path fill="url(#paint41_linear)" d="M366.408 74.358h-2.252v-2.273h2.252v2.273zm0-4.547h-2.252v-2.273h2.252v2.273zm0-4.42h-2.252v-2.273h2.252v2.273zm0-4.42h-2.252v-2.274h2.252v2.274zm0-4.42h-2.252v-2.274h2.252v2.273zm0-4.547h-2.252V49.73h2.252v2.274z"/>
    <path fill="url(#paint42_linear)" d="M359.277 76h-2.252v-2.147h2.252V76zm0-4.294h-2.252v-2.273h2.252v2.273zm0-4.42h-2.252v-2.274h2.252v2.273zm0-4.42h-2.252v-2.274h2.252v2.273zm0-4.548h-2.252v-2.273h2.252v2.273zm0-4.42h-2.252v-2.273h2.252v2.273zm0-4.42h-2.252v-2.274h2.252v2.273zm0-4.42h-2.252v-2.274h2.252v2.273zm0-4.548h-2.252v-2.147h2.252v2.147z"/>
    <path fill="url(#paint43_linear)" d="M350.02 76v-.126h2.252V76h-2.252zm0-2.4v-2.273h2.252V73.6h-2.252zm0-4.42v-2.274h2.252v2.274h-2.252zm0-4.42v-2.274h2.252v2.274h-2.252zm0-4.42v-2.274h2.252v2.273h-2.252zm0-4.548V53.52h2.252v2.273h-2.252zm0-4.42v-2.273h2.252v2.273h-2.252zm0-4.42v-2.274h2.252v2.274h-2.252zm0-4.547v-2.273h2.252v2.273h-2.252zm0-4.42v-2.148h2.252v2.147h-2.252zm0-4.421v-2.273h2.252v2.273h-2.252z"/>
    <path fill="url(#paint44_linear)" d="M345.016 76h-2.252v-.758h2.252V76zm0-3.031h-2.252v-2.273h2.252v2.273zm0-4.42h-2.252v-2.274h2.252v2.273zm0-4.421h-2.252v-2.273h2.252v2.273zm0-4.42h-2.252v-2.274h2.252v2.274zm0-4.547h-2.252v-2.273h2.252v2.273zm0-4.42h-2.252v-2.274h2.252v2.273zm0-4.42h-2.252v-2.274h2.252v2.273zm0-4.548h-2.252v-2.147h2.252v2.147zm0-4.42h-2.252V35.08h2.252v2.273zm0-4.42h-2.252v-2.274h2.252v2.273zm0-4.42h-2.252v-2.274h2.252v2.273zm0-4.548h-2.252v-2.273h2.252v2.273zm0-4.42h-2.252v-2.273h2.252v2.273z"/>
    <path fill="url(#paint45_linear)" d="M337.885 75.621h-2.252v-2.273h2.252v2.273zm0-4.42h-2.252v-2.274h2.252v2.274zm0-4.547h-2.252v-2.273h2.252v2.273zm0-4.42h-2.252V59.96h2.252v2.273zm0-4.42h-2.252V55.54h2.252v2.273zm0-4.548h-2.252v-2.273h2.252v2.273zm0-4.42h-2.252v-2.273h2.252v2.273zm0-4.42h-2.252v-2.274h2.252v2.274zm0-4.42h-2.252v-2.274h2.252v2.273zm0-4.547h-2.252V33.31h2.252v2.148zm0-4.421h-2.252v-2.273h2.252v2.273z"/>
    <path fill="url(#paint46_linear)" d="M330.754 76h-2.252v-.379h2.252V76zm0-2.526h-2.252v-2.273h2.252v2.273zm0-4.42h-2.252V66.78h2.252v2.274zm0-4.42h-2.252V62.36h2.252v2.273zm0-4.547h-2.252v-2.274h2.252v2.273zm0-4.42h-2.252v-2.274h2.252v2.273zm0-4.421h-2.252v-2.274h2.252v2.274zm0-4.547h-2.252v-2.273h2.252v2.273zm0-4.42h-2.252v-2.274h2.252v2.274z"/>
    <path fill="url(#paint47_linear)" d="M323.498 75.621h-2.252v-2.273h2.252v2.273zm0-4.547h-2.252v-2.273h2.252v2.273zm0-4.42h-2.252v-2.273h2.252v2.273zm0-4.42h-2.252V59.96h2.252v2.274zm0-4.547h-2.252v-2.273h2.252v2.273zm0-4.42h-2.252v-2.274h2.252v2.273z"/>
    <path fill="url(#paint48_linear)" d="M316.367 76h-2.252v-1.768h2.252V76zm0-3.915h-2.252V69.81h2.252v2.274z"/>
    <path fill="url(#paint49_linear)" d="M309.236 73.853h-2.252V71.58h2.252v2.273zm0-4.42h-2.252v-2.274h2.252v2.273zm0-4.42h-2.252v-2.274h2.252v2.273zm0-4.421h-2.252v-2.274h2.252v2.274z"/>
    <path fill="url(#paint50_linear)" d="M302.105 76h-2.251v-.253h2.251V76zm0-2.526h-2.251v-2.273h2.251v2.273zm0-4.42h-2.251V66.78h2.251v2.274zm0-4.42h-2.251V62.36h2.251v2.273zm0-4.547h-2.251v-2.274h2.251v2.273zm0-4.42h-2.251v-2.148h2.251v2.147zm0-4.421h-2.251v-2.274h2.251v2.274z"/>
    <path fill="url(#paint51_linear)" d="M294.975 76h-2.252v-1.01h2.252V76zm0-3.157h-2.252v-2.274h2.252v2.274zm0-4.42h-2.252v-2.274h2.252v2.273zm0-4.421h-2.252v-2.274h2.252v2.274zm0-4.547h-2.252v-2.147h2.252v2.147zm0-4.42h-2.252V52.76h2.252v2.274zm0-4.42h-2.252V48.34h2.252v2.273zm0-4.547h-2.252v-2.274h2.252v2.274zm0-4.42h-2.252v-2.274h2.252v2.273z"/>
    <path fill="url(#paint52_linear)" d="M287.719 73.727h-2.252v-2.274h2.252v2.274zm0-4.42h-2.252v-2.274h2.252v2.273zm0-4.421h-2.252v-2.273h2.252v2.273zm0-4.547h-2.252v-2.273h2.252v2.273zm0-4.42h-2.252v-2.274h2.252v2.274zm0-4.42h-2.252v-2.274h2.252v2.273zm0-4.547h-2.252v-2.274h2.252v2.274zm0-4.42h-2.252v-2.274h2.252v2.273zm0-4.421h-2.252v-2.274h2.252v2.274zm0-4.42h-2.252v-2.274h2.252v2.273zm0-4.547h-2.252v-2.147h2.252v2.147z"/>
    <path fill="url(#paint53_linear)" d="M280.588 75.621h-2.252v-2.273h2.252v2.273zm0-4.42h-2.252v-2.274h2.252v2.274zm0-4.42h-2.252v-2.274h2.252v2.273zm0-4.547h-2.252V59.96h2.252v2.274zm0-4.42h-2.252V55.54h2.252v2.273zm0-4.421h-2.252v-2.274h2.252v2.274zm0-4.42h-2.252v-2.274h2.252v2.273zm0-4.547h-2.252v-2.274h2.252v2.274zm0-4.42h-2.252v-2.274h2.252v2.273zm0-4.421h-2.252V33.31h2.252v2.274zm0-4.547h-2.252v-2.273h2.252v2.273zm0-4.42h-2.252V24.47h2.252v2.147zm0-4.42h-2.252v-2.274h2.252v2.273zm0-4.421h-2.252v-2.274h2.252v2.274zm0-4.547h-2.252v-2.147h2.252v2.147zm0-4.42h-2.252V6.536h2.252V8.81z"/>
    <path fill="url(#paint54_linear)" d="M273.457 76h-2.252v-.379h2.252V76zm0-2.652h-2.252V71.2h2.252v2.147zm0-4.42h-2.252v-2.274h2.252v2.273zm0-4.421h-2.252v-2.273h2.252v2.273zm0-4.547h-2.252v-2.273h2.252v2.273zm0-4.42h-2.252v-2.273h2.252v2.273zm0-4.42h-2.252v-2.274h2.252v2.273zm0-4.421h-2.252v-2.273h2.252v2.273zm0-4.547h-2.252V39.88h2.252v2.273zm0-4.42h-2.252v-2.273h2.252v2.273zm0-4.42h-2.252v-2.274h2.252v2.273zm0-4.421h-2.252v-2.273h2.252v2.273zm0-4.547h-2.252v-2.273h2.252v2.273zm0-4.42h-2.252V17.65h2.252v2.273zm0-4.42h-2.252V13.23h2.252v2.274z"/>
    <path fill="url(#paint55_linear)" d="M266.326 75.495h-2.252v-2.273h2.252v2.273zm0-4.42h-2.252V68.8h2.252v2.273zm0-4.547h-2.252v-2.274h2.252v2.274zm0-4.42h-2.252v-2.274h2.252v2.273zm0-4.421h-2.252v-2.273h2.252v2.273zm0-4.42h-2.252v-2.274h2.252v2.273zm0-4.547h-2.252v-2.274h2.252v2.274zm0-4.42h-2.252v-2.274h2.252v2.273zm0-4.421h-2.252v-2.273h2.252v2.273zm0-4.42h-2.252v-2.274h2.252v2.273zm0-4.547h-2.252v-2.274h2.252v2.274zm0-4.42h-2.252v-2.274h2.252v2.273z"/>
    <path fill="url(#paint56_linear)" d="M259.195 76h-2.252v-.884h2.252V76zm0-3.031h-2.252v-2.273h2.252v2.273zm0-4.42h-2.252v-2.274h2.252v2.273zm0-4.547h-2.252v-2.274h2.252v2.274zm0-4.42h-2.252v-2.274h2.252v2.273zm0-4.421h-2.252v-2.273h2.252v2.273zm0-4.547h-2.252v-2.147h2.252v2.147zm0-4.42h-2.252V43.92h2.252v2.274zm0-4.42h-2.252V39.5h2.252v2.273zm0-4.421h-2.252V35.08h2.252v2.273z"/>
    <path fill="url(#paint57_linear)" d="M249.938 76v-1.768h2.251V76h-2.251zm0-4.041v-2.274h2.251v2.273h-2.251zm0-4.42v-2.274h2.251v2.273h-2.251zm0-4.421v-2.274h2.251v2.274h-2.251z"/>
    <path fill="url(#paint58_linear)" d="M244.934 73.727h-2.252v-2.274h2.252v2.274zm0-4.42h-2.252v-2.274h2.252v2.273z"/>
    <path fill="url(#paint59_linear)" d="M237.678 73.853h-2.252V71.58h2.252v2.273zm0-4.42h-2.252v-2.274h2.252v2.273zm0-4.547h-2.252v-2.273h2.252v2.273zm0-4.42h-2.252v-2.274h2.252v2.273zm0-4.421h-2.252v-2.273h2.252v2.273zm0-4.42h-2.252V49.35h2.252v2.274zm0-4.547h-2.252v-2.274h2.252v2.274zm0-4.42h-2.252v-2.274h2.252v2.273zm0-4.421h-2.252v-2.273h2.252v2.273zm0-4.42h-2.252v-2.274h2.252v2.274zm0-4.547h-2.252v-2.273h2.252v2.273z"/>
    <path fill="url(#paint60_linear)" d="M230.547 76h-2.252v-.632h2.252V76zm0-2.905h-2.252v-2.273h2.252v2.273zm0-4.42h-2.252V66.4h2.252v2.274zm0-4.42h-2.252V61.98h2.252v2.273zm0-4.421h-2.252V57.56h2.252v2.273zm0-4.547h-2.252v-2.273h2.252v2.273zm0-4.42h-2.252v-2.273h2.252v2.273zm0-4.42h-2.252v-2.274h2.252v2.273zm0-4.421h-2.252v-2.273h2.252v2.273z"/>
    <path fill="url(#paint61_linear)" d="M223.416 76h-2.252v-.758h2.252V76zm0-2.905h-2.252v-2.273h2.252v2.273zm0-4.42h-2.252V66.4h2.252v2.274z"/>
    <path fill="url(#paint62_linear)" d="M216.285 76h-2.252v-1.01h2.252V76zm0-3.284h-2.252v-2.273h2.252v2.273zm0-4.42h-2.252v-2.274h2.252v2.274zm0-4.547h-2.252v-2.273h2.252v2.273z"/>
    <path fill="url(#paint63_linear)" d="M209.154 76h-2.252v-.758h2.252V76zm0-3.031h-2.252v-2.273h2.252v2.273zm0-4.42h-2.252v-2.274h2.252v2.273zm0-4.421h-2.252v-2.273h2.252v2.273zm0-4.42h-2.252v-2.274h2.252v2.274zm0-4.547h-2.252v-2.273h2.252v2.273zm0-4.42h-2.252v-2.274h2.252v2.273zm0-4.421h-2.252v-2.273h2.252v2.273zm0-4.547h-2.252v-2.147h2.252v2.147zm0-4.42h-2.252V35.08h2.252v2.273zm0-4.42h-2.252v-2.274h2.252v2.273z"/>
    <path fill="url(#paint64_linear)" d="M202.023 76h-2.251v-1.642h2.251V76zm0-3.789h-2.251v-2.273h2.251v2.273zm0-4.42h-2.251v-2.274h2.251v2.274zm0-4.547h-2.251v-2.147h2.251v2.147zm0-4.42h-2.251V56.55h2.251v2.274zm0-4.42h-2.251V52.13h2.251v2.273zm0-4.421h-2.251v-2.274h2.251v2.274zm0-4.547h-2.251v-2.273h2.251v2.273zm0-4.42h-2.251v-2.274h2.251v2.274z"/>
    <path fill="url(#paint65_linear)" d="M194.767 75.116h-2.251v-2.273h2.251v2.273zm0-4.42h-2.251v-2.274h2.251v2.273zm0-4.547h-2.251v-2.273h2.251v2.273zm0-4.42h-2.251v-2.274h2.251v2.273zm0-4.421h-2.251v-2.273h2.251v2.273zm0-4.547h-2.251v-2.273h2.251v2.273zm0-4.42h-2.251v-2.273h2.251v2.273z"/>
    <path fill="url(#paint66_linear)" d="M187.637 76h-2.252v-1.39h2.252V76zm0-3.536h-2.252V70.19h2.252v2.274zm0-4.42h-2.252V65.77h2.252v2.273zm0-4.547h-2.252v-2.274h2.252v2.274zm0-4.42h-2.252v-2.274h2.252v2.273zm0-4.421h-2.252v-2.274h2.252v2.274zm0-4.547h-2.252v-2.273h2.252v2.273zm0-4.42h-2.252v-2.274h2.252v2.274zm0-4.42h-2.252v-2.274h2.252v2.273zm0-4.421h-2.252v-2.274h2.252v2.274zm0-4.547h-2.252v-2.273h2.252V32.3zm0-4.42h-2.252v-2.274h2.252v2.274zm0-4.42h-2.252v-2.274h2.252v2.273zm0-4.421h-2.252v-2.274h2.252v2.274zm0-4.547h-2.252v-2.147h2.252v2.147zm0-4.42h-2.252V7.799h2.252v2.274z"/>
    <path fill="url(#paint67_linear)" d="M180.506 76h-2.252v-1.137h2.252V76zm0-3.284h-2.252v-2.273h2.252v2.273zm0-4.546h-2.252v-2.274h2.252v2.273zm0-4.42h-2.252v-2.274h2.252v2.273zm0-4.421h-2.252v-2.274h2.252v2.274zm0-4.42h-2.252v-2.274h2.252v2.273zm0-4.547h-2.252v-2.274h2.252v2.274zm0-4.42h-2.252v-2.274h2.252v2.273zm0-4.421h-2.252v-2.274h2.252v2.274zm0-4.42h-2.252v-2.274h2.252V37.1zm0-4.547h-2.252V30.28h2.252v2.274zm0-4.42h-2.252V25.86h2.252v2.273zm0-4.421h-2.252v-2.274h2.252v2.274zm0-4.547h-2.252v-2.273h2.252v2.273z"/>
    <path fill="url(#paint68_linear)" d="M173.375 76h-2.252v-1.263h2.252V76zm0-3.536h-2.252V70.19h2.252v2.274zm0-4.42h-2.252V65.77h2.252v2.273zm0-4.421h-2.252V61.35h2.252v2.273zm0-4.42h-2.252v-2.274h2.252v2.273zm0-4.547h-2.252v-2.274h2.252v2.274zm0-4.42h-2.252v-2.274h2.252v2.273zm0-4.421h-2.252v-2.273h2.252v2.273zm0-4.42h-2.252V39.12h2.252v2.273zm0-4.547h-2.252v-2.274h2.252v2.274zm0-4.42h-2.252v-2.274h2.252v2.273z"/>
    <path fill="url(#paint69_linear)" d="M166.244 76h-2.252v-.126h2.252V76zm0-2.273h-2.252v-2.274h2.252v2.274zm0-4.547h-2.252v-2.273h2.252v2.273zm0-4.42h-2.252v-2.274h2.252v2.274zm0-4.42h-2.252v-2.274h2.252v2.273zm0-4.548h-2.252V53.52h2.252v2.273zm0-4.42h-2.252v-2.273h2.252v2.273zm0-4.42h-2.252v-2.274h2.252v2.274zm0-4.42h-2.252v-2.274h2.252v2.273zm0-4.548h-2.252v-2.147h2.252v2.147z"/>
    <path fill="url(#paint70_linear)" d="M159.113 76h-2.252v-2.147h2.252V76zm0-4.294h-2.252v-2.273h2.252v2.273zm0-4.42h-2.252v-2.274h2.252v2.273zm0-4.547h-2.252v-2.274h2.252v2.274zm0-4.42h-2.252v-2.274h2.252v2.273zm0-4.421h-2.252v-2.274h2.252v2.274zm0-4.42h-2.252v-2.274h2.252v2.273zm0-4.547h-2.252v-2.274h2.252v2.274z"/>
    <path fill="url(#paint71_linear)" d="M149.856 74.484v-2.273h2.251v2.273h-2.251zm0-4.42v-2.273h2.251v2.273h-2.251zm0-4.547v-2.273h2.251v2.273h-2.251zm0-4.42v-2.273h2.251v2.273h-2.251z"/>
    <path fill="url(#paint72_linear)" d="M144.726 76h-2.251v-.253h2.251V76zm0-2.4h-2.251v-2.273h2.251V73.6zm0-4.546h-2.251V66.78h2.251v2.274z"/>
    <path fill="url(#paint73_linear)" d="M137.596 76h-2.252v-1.39h2.252V76zm0-3.536h-2.252V70.19h2.252v2.274zm0-4.42h-2.252V65.77h2.252v2.273zm0-4.547h-2.252v-2.274h2.252v2.274zm0-4.42h-2.252v-2.274h2.252v2.273zm0-4.421h-2.252v-2.274h2.252v2.274z"/>
    <path fill="url(#paint74_linear)" d="M130.465 75.242h-2.252V72.97h2.252v2.273zm0-4.42h-2.252v-2.273h2.252v2.273zm0-4.547h-2.252v-2.273h2.252v2.273zm0-4.42h-2.252V59.58h2.252v2.274zm0-4.42h-2.252V55.16h2.252v2.273zm0-4.421h-2.252V50.74h2.252v2.274zm0-4.547h-2.252v-2.273h2.252v2.273zm0-4.42h-2.252v-2.274h2.252v2.274zm0-4.42h-2.252v-2.274h2.252v2.273zm0-4.547h-2.252v-2.274h2.252v2.274z"/>
    <path fill="url(#paint75_linear)" d="M123.334 76h-2.252v-.253h2.252V76zm0-2.4h-2.252v-2.273h2.252V73.6zm0-4.546h-2.252V66.78h2.252v2.274zm0-4.42h-2.252V62.36h2.252v2.273zm0-4.421h-2.252v-2.274h2.252v2.274zm0-4.42h-2.252v-2.274h2.252v2.273zm0-4.547h-2.252v-2.274h2.252v2.274z"/>
    <path fill="url(#paint76_linear)" d="M116.203 76h-2.252v-2.147h2.252V76zm0-4.294h-2.252v-2.273h2.252v2.273zm0-4.42h-2.252v-2.274h2.252v2.273zm0-4.547h-2.252v-2.274h2.252v2.274zm0-4.42h-2.252v-2.274h2.252v2.273zm0-4.421h-2.252v-2.274h2.252v2.274zm0-4.42h-2.252v-2.274h2.252v2.273zm0-4.547h-2.252v-2.274h2.252v2.274z"/>
    <path fill="url(#paint77_linear)" d="M109.072 73.6h-2.252v-2.273h2.252V73.6zm0-4.42h-2.252v-2.273h2.252v2.273zm0-4.42h-2.252v-2.274h2.252v2.274zm0-4.42h-2.252v-2.274h2.252v2.273z"/>
    <path fill="url(#paint78_linear)" d="M101.941 76h-2.252v-1.516h2.252V76zm0-3.663h-2.252v-2.273h2.252v2.273zm0-4.42h-2.252v-2.273h2.252v2.273zm0-4.547h-2.252v-2.273h2.252v2.273zm0-4.42h-2.252v-2.274h2.252v2.274zm0-4.42h-2.252v-2.274h2.252v2.273zm0-4.547h-2.252v-2.274h2.252v2.274zm0-4.42h-2.252v-2.148h2.252v2.147zm0-4.421h-2.252v-2.274h2.252v2.274zm0-4.42h-2.252v-2.274h2.252v2.273zm0-4.547h-2.252V29.9h2.252v2.274zm0-4.42h-2.252V25.48h2.252v2.273zm0-4.421h-2.252V21.06h2.252v2.273z"/>
    <path fill="url(#paint79_linear)" d="M94.685 74.232h-2.252v-2.273h2.252v2.273zm0-4.42h-2.252v-2.274h2.252v2.273zm0-4.547h-2.252V62.99h2.252v2.274zm0-4.42h-2.252V58.57h2.252v2.273zm0-4.421h-2.252V54.15h2.252v2.273zm0-4.42h-2.252V49.73h2.252v2.273zm0-4.547h-2.252v-2.274h2.252v2.274zm0-4.42h-2.252v-2.274h2.252v2.273zm0-4.421h-2.252v-2.273h2.252v2.273zm0-4.42h-2.252v-2.274h2.252v2.274z"/>
    <path fill="url(#paint80_linear)" d="M87.555 75.495h-2.252v-2.273h2.252v2.273zm0-4.547h-2.252v-2.273h2.252v2.273zm0-4.42h-2.252v-2.274h2.252v2.274zm0-4.42h-2.252v-2.274h2.252v2.273zm0-4.547h-2.252v-2.274h2.252v2.274zm0-4.42h-2.252v-2.148h2.252v2.147zm0-4.421h-2.252v-2.274h2.252v2.274zm0-4.42h-2.252v-2.274h2.252v2.273zm0-4.547h-2.252v-2.274h2.252v2.274z"/>
    <path fill="url(#paint81_linear)" d="M80.424 74.737h-2.252v-2.273h2.252v2.273zm0-4.42h-2.252v-2.274h2.252v2.274zm0-4.42h-2.252v-2.274h2.252v2.273zm0-4.548h-2.252v-2.273h2.252v2.273zm0-4.42h-2.252v-2.147h2.252v2.147zm0-4.42h-2.252v-2.274h2.252v2.274zm0-4.42h-2.252v-2.274h2.252v2.273zm0-4.547h-2.252v-2.274h2.252v2.273zm0-4.42h-2.252v-2.274h2.252v2.273zm0-4.421h-2.252v-2.274h2.252v2.274zm0-4.42h-2.252v-2.274h2.252v2.273zm0-4.547h-2.252V23.46h2.252v2.274zm0-4.42h-2.252V19.04h2.252v2.273z"/>
    <path fill="url(#paint82_linear)" d="M73.293 73.853H71.04V71.58h2.252v2.273zm0-4.42H71.04v-2.274h2.252v2.273zm0-4.547H71.04v-2.273h2.252v2.273zm0-4.42H71.04v-2.274h2.252v2.273zm0-4.421H71.04v-2.273h2.252v2.273zm0-4.42H71.04V49.35h2.252v2.274zm0-4.547H71.04v-2.274h2.252v2.274zm0-4.42H71.04v-2.274h2.252v2.273zm0-4.421H71.04v-2.273h2.252v2.273zm0-4.42H71.04v-2.274h2.252v2.274zm0-4.547H71.04v-2.273h2.252v2.273z"/>
    <path fill="url(#paint83_linear)" d="M66.162 76H63.91v-.758h2.252V76zm0-2.905H63.91v-2.273h2.252v2.273zm0-4.42H63.91V66.4h2.252v2.274z"/>
    <path fill="url(#paint84_linear)" d="M58.906 76h-2.252v-.758h2.252V76zm0-2.905h-2.252v-2.273h2.252v2.273zm0-4.42h-2.252V66.4h2.252v2.274z"/>
    <path fill="url(#paint85_linear)" d="M51.775 75.874h-2.252v-2.147h2.252v2.147zm0-4.42h-2.252V69.18h2.252v2.273zm0-4.421h-2.252V64.76h2.252v2.273zm0-4.547h-2.252v-2.273h2.252v2.273z"/>
    <path fill="url(#paint86_linear)" d="M44.644 74.484h-2.252v-2.273h2.252v2.273zm0-4.42h-2.252v-2.273h2.252v2.273zm0-4.42h-2.252V63.37h2.252v2.274zm0-4.547h-2.252v-2.273h2.252v2.273zm0-4.42h-2.252v-2.274h2.252v2.273zm0-4.421h-2.252v-2.273h2.252v2.273zm0-4.42h-2.252v-2.274h2.252v2.274z"/>
    <path fill="url(#paint87_linear)" d="M37.514 76h-2.252v-2.147h2.252V76zm0-4.42h-2.252v-2.274h2.252v2.274zm0-4.42h-2.252v-2.274h2.252v2.273zm0-4.421h-2.252v-2.274h2.252v2.274zm0-4.42h-2.252v-2.274h2.252v2.273z"/>
    <path fill="url(#paint88_linear)" d="M30.383 76H28.13v-1.01h2.252V76zm0-3.157H28.13v-2.274h2.252v2.273zm0-4.547H28.13v-2.147h2.252v2.147zm0-4.42H28.13v-2.274h2.252v2.273z"/>
    <path fill="url(#paint89_linear)" d="M23.252 73.98H21v-2.274h2.252v2.273zm0-4.547H21v-2.274h2.252v2.273z"/>
    <path fill="url(#paint90_linear)" d="M631 81.683h-2.252V79.41H631v2.273zm0-4.42h-2.252V76H631v1.263z"/>
    <path fill="url(#paint91_linear)" d="M623.869 89.135h-2.252v-2.273h2.252v2.273zm0-4.42h-2.252V82.44h2.252v2.273zm0-4.42h-2.252V78.02h2.252v2.273z"/>
    <path fill="url(#paint92_linear)" d="M616.738 94.945h-2.252V92.67h2.252v2.274zm0-4.547h-2.252v-2.273h2.252v2.273zm0-4.42h-2.252V83.83h2.252v2.147zm0-4.42h-2.252v-2.274h2.252v2.273zm0-4.421h-2.252V76h2.252v1.137z"/>
    <path fill="url(#paint93_linear)" d="M609.607 83.452h-2.251v-2.274h2.251v2.274zm0-4.547h-2.251v-2.273h2.251v2.273z"/>
    <path fill="url(#paint94_linear)" d="M602.477 90.145h-2.252v-2.273h2.252v2.273zm0-4.42h-2.252v-2.273h2.252v2.273zm0-4.42h-2.252V79.03h2.252v2.273zm0-4.547h-2.252v-.884h2.252v.884z"/>
    <path fill="url(#paint95_linear)" d="M595.346 101.638h-2.252v-2.273h2.252v2.273zm0-4.42h-2.252v-2.273h2.252v2.273zm0-4.42h-2.252v-2.274h2.252v2.274zm0-4.547h-2.252v-2.273h2.252v2.273zm0-4.42h-2.252v-2.274h2.252v2.273zm0-4.421h-2.252v-2.273h2.252v2.273z"/>
    <path fill="url(#paint96_linear)" d="M588.09 85.472h-2.252V83.2h2.252v2.273zm0-4.546h-2.252v-2.148h2.252v2.148zm0-4.42h-2.252v-.632h2.252v.631z"/>
    <path fill="url(#paint97_linear)" d="M580.959 95.955h-2.252v-2.273h2.252v2.273zm0-4.547h-2.252v-2.273h2.252v2.273zm0-4.42h-2.252v-2.273h2.252v2.273zm0-4.42h-2.252v-2.274h2.252v2.273zm0-4.42h-2.252V76h2.252v2.147z"/>
    <path fill="url(#paint98_linear)" d="M573.828 106.943h-2.252v-2.273h2.252v2.273zm0-4.547h-2.252v-2.147h2.252v2.147zm0-4.42h-2.252v-2.274h2.252v2.274zm0-4.42h-2.252v-2.274h2.252v2.273zm0-4.421h-2.252v-2.273h2.252v2.273zm0-4.547h-2.252v-2.273h2.252v2.273zm0-4.42h-2.252v-2.274h2.252v2.274z"/>
    <path fill="url(#paint99_linear)" d="M566.572 105.175h-2.252v-2.274h2.252v2.274zm0-4.421h-2.252v-2.273h2.252v2.273zm0-4.42h-2.252V94.06h2.252v2.273zm0-4.547h-2.252v-2.273h2.252v2.273zm0-4.42h-2.252v-2.274h2.252v2.274zm0-4.42h-2.252v-2.274h2.252v2.273zm0-4.421h-2.252v-2.273h2.252v2.273z"/>
    <path fill="url(#paint100_linear)" d="M559.441 122.73h-2.252v-2.273h2.252v2.273zm0-4.42h-2.252v-2.274h2.252v2.274zm0-4.421h-2.252v-2.273h2.252v2.273zm0-4.42h-2.252v-2.273h2.252v2.273zm0-4.547h-2.252v-2.147h2.252v2.147zm0-4.42h-2.252v-2.274h2.252v2.274zm0-4.42h-2.252v-2.274h2.252v2.273zm0-4.421h-2.252v-2.273h2.252v2.273zm0-4.547h-2.252v-2.273h2.252v2.273zm0-4.42h-2.252V80.42h2.252v2.274zm0-4.42h-2.252V76h2.252v2.273z"/>
    <path fill="url(#paint101_linear)" d="M550.184 131.192v-2.273h2.252v2.273h-2.252zm0-4.42v-2.274h2.252v2.274h-2.252zm0-4.421v-2.273h2.252v2.273h-2.252zm0-4.546v-2.274h2.252v2.274h-2.252zm0-4.421v-2.273h2.252v2.273h-2.252zm0-4.42v-2.274h2.252v2.274h-2.252zm0-4.421v-2.273h2.252v2.273h-2.252zm0-4.546v-2.274h2.252v2.274h-2.252zm0-4.42v-2.274h2.252v2.273h-2.252zm0-4.421v-2.274h2.252v2.274h-2.252zm0-4.547v-2.273h2.252v2.273h-2.252zm0-4.42v-2.147h2.252v2.147h-2.252zm0-4.42V76h2.252v1.768h-2.252z"/>
    <path fill="url(#paint102_linear)" d="M545.18 121.846h-2.252v-2.273h2.252v2.273zm0-4.42h-2.252v-2.274h2.252v2.274zm0-4.421h-2.252v-2.273h2.252v2.273zm0-4.42h-2.252v-2.274h2.252v2.274zm0-4.547h-2.252v-2.273h2.252v2.273zm0-4.42h-2.252v-2.274h2.252v2.274zm0-4.42h-2.252v-2.274h2.252v2.273zm0-4.547h-2.252v-2.274h2.252v2.273zm0-4.42h-2.252v-2.274h2.252v2.273zm0-4.421h-2.252v-2.274h2.252v2.274zm0-4.42h-2.252V76h2.252v1.39z"/>
    <path fill="url(#paint103_linear)" d="M538.049 141.043h-2.252v-2.273h2.252v2.273zm0-4.42h-2.252v-2.274h2.252v2.274zm0-4.421h-2.252v-2.273h2.252v2.273zm0-4.42h-2.252v-2.273h2.252v2.273zm0-4.547h-2.252v-2.273h2.252v2.273zm0-4.42h-2.252v-2.273h2.252v2.273zm0-4.421h-2.252v-2.273h2.252v2.273zm0-4.42h-2.252v-2.273h2.252v2.273zm0-4.547h-2.252v-2.273h2.252v2.273zm0-4.42h-2.252v-2.273h2.252v2.273zm0-4.42h-2.252v-2.274h2.252v2.273zm0-4.547h-2.252v-2.274h2.252v2.274zm0-4.42h-2.252v-2.274h2.252v2.273zm0-4.421h-2.252v-2.273h2.252v2.273zm0-4.42h-2.252v-2.274h2.252v2.273z"/>
    <path fill="url(#paint104_linear)" d="M530.918 95.45h-2.252v-2.273h2.252v2.273zm0-4.42h-2.252v-2.274h2.252v2.273zm0-4.547h-2.252v-2.274h2.252v2.274zm0-4.42h-2.252v-2.274h2.252v2.273zm0-4.421h-2.252V76h2.252v1.642z"/>
    <path fill="url(#paint105_linear)" d="M523.787 110.1h-2.252v-2.273h2.252v2.273zm0-4.42h-2.252v-2.273h2.252v2.273zm0-4.42h-2.252v-2.274h2.252v2.274zm0-4.547h-2.252V94.44h2.252v2.273zm0-4.42h-2.252v-2.274h2.252v2.273zm0-4.421h-2.252v-2.273h2.252v2.273zm0-4.547h-2.252v-2.273h2.252v2.273zm0-4.42h-2.252v-2.273h2.252v2.273z"/>
    <path fill="url(#paint106_linear)" d="M516.656 119.32h-2.252v-2.273h2.252v2.273zm0-4.42h-2.252v-2.274h2.252v2.274zm0-4.421h-2.252v-2.273h2.252v2.273zm0-4.546h-2.252v-2.274h2.252v2.274zm0-4.421h-2.252v-2.273h2.252v2.273zm0-4.42h-2.252v-2.274h2.252v2.274zm0-4.42h-2.252v-2.274h2.252v2.273zm0-4.547h-2.252V85.85h2.252v2.274zm0-4.42h-2.252V81.43h2.252v2.273zm0-4.421h-2.252V77.01h2.252v2.274z"/>
    <path fill="url(#paint107_linear)" d="M509.525 109.469h-2.251v-2.273h2.251v2.273zm0-4.421h-2.251v-2.273h2.251v2.273zm0-4.546h-2.251v-2.274h2.251v2.274zm0-4.42h-2.251v-2.274h2.251v2.273zm0-4.421h-2.251v-2.273h2.251v2.273zm0-4.547h-2.251v-2.273h2.251v2.273zm0-4.42h-2.251V80.42h2.251v2.274zm0-4.42h-2.251V76h2.251v2.273z"/>
    <path fill="url(#paint108_linear)" d="M502.269 106.69h-2.251v-2.273h2.251v2.273zm0-4.546h-2.251V99.87h2.251v2.274zm0-4.42h-2.251V95.45h2.251v2.273zm0-4.421h-2.251v-2.274h2.251v2.274zm0-4.42h-2.251v-2.274h2.251v2.273zm0-4.547h-2.251v-2.274h2.251v2.274zm0-4.42h-2.251v-2.274h2.251v2.273z"/>
    <path fill="url(#paint109_linear)" d="M495.139 97.85h-2.252v-2.274h2.252v2.274zm0-4.42h-2.252v-2.274h2.252v2.273zm0-4.421h-2.252v-2.274h2.252v2.274zm0-4.42h-2.252v-2.274h2.252v2.273zm0-4.547h-2.252v-2.274h2.252v2.273z"/>
    <path fill="url(#paint110_linear)" d="M488.008 77.894h-2.252v2.274h2.252v-2.274z"/>
    <path fill="url(#paint111_linear)" d="M480.877 84.967h-2.252v-2.273h2.252v2.273zm0-4.547h-2.252v-2.273h2.252v2.273zm0-4.42h-2.252v-.126l2.252.126z"/>
    <path fill="url(#paint112_linear)" d="M473.621 92.419h-2.252v-2.274h2.252v2.274zm0-4.42h-2.252v-2.274h2.252v2.273zm0-4.547h-2.252v-2.147h2.252v2.146zm0-4.42h-2.252v-2.274h2.252v2.273z"/>
    <path fill="url(#paint113_linear)" d="M466.49 105.68h-2.252v-2.273h2.252v2.273zm0-4.42h-2.252v-2.274h2.252v2.274zm0-4.547h-2.252V94.44h2.252v2.273zm0-4.42h-2.252v-2.274h2.252v2.273zm0-4.421h-2.252v-2.273h2.252v2.273zm0-4.547h-2.252v-2.273h2.252v2.273zm0-4.42h-2.252v-2.273h2.252v2.273z"/>
    <path fill="url(#paint114_linear)" d="M459.359 120.204h-2.252v-2.273h2.252v2.273zm0-4.547h-2.252v-2.273h2.252v2.273zm0-4.42h-2.252v-2.273h2.252v2.273zm0-4.42h-2.252v-2.274h2.252v2.274zm0-4.547h-2.252v-2.273h2.252v2.273zm0-4.42h-2.252v-2.274h2.252v2.274zm0-4.42h-2.252v-2.274h2.252v2.273zm0-4.421h-2.252v-2.274h2.252v2.274zm0-4.547h-2.252v-2.273h2.252v2.273zm0-4.42h-2.252v-2.274h2.252v2.273z"/>
    <path fill="url(#paint115_linear)" d="M450.102 81.178v-2.273h2.252v2.273h-2.252zm0-4.42V76h2.252v.758h-2.252z"/>
    <path fill="url(#paint116_linear)" d="M445.098 87.367h-2.252v-2.274h2.252v2.274zm0-4.42h-2.252v-2.274h2.252v2.273zm0-4.421h-2.252v-2.273h2.252v2.273z"/>
    <path fill="url(#paint117_linear)" d="M437.967 100.123h-2.252V97.85h2.252v2.273zm0-4.42h-2.252v-2.274h2.252v2.273zm0-4.421h-2.252v-2.273h2.252v2.273zm0-4.547h-2.252v-2.273h2.252v2.273zm0-4.42h-2.252v-2.273h2.252v2.273zm0-4.42h-2.252v-2.021h2.252v2.02z"/>
    <path fill="url(#paint118_linear)" d="M430.836 129.171h-2.252v-2.273h2.252v2.273zm0-4.546h-2.252v-2.274h2.252v2.274zm0-4.421h-2.252v-2.273h2.252v2.273zm0-4.42h-2.252v-2.274h2.252v2.274zm0-4.421h-2.252v-2.273h2.252v2.273zm0-4.546h-2.252v-2.274h2.252v2.274zm0-4.421h-2.252v-2.273h2.252v2.273zm0-4.42h-2.252v-2.274h2.252v2.274zm0-4.42h-2.252v-2.274h2.252v2.273zm0-4.547h-2.252v-2.274h2.252v2.274zm0-4.42h-2.252v-2.274h2.252v2.273zm0-4.421h-2.252v-2.274h2.252v2.274z"/>
    <path fill="url(#paint119_linear)" d="M423.705 109.595h-2.252v-2.273h2.252v2.273zm0-4.42h-2.252v-2.274h2.252v2.274zm0-4.421h-2.252v-2.273h2.252v2.273zm0-4.42h-2.252V94.06h2.252v2.273zm0-4.547h-2.252v-2.273h2.252v2.273zm0-4.42h-2.252v-2.274h2.252v2.274zm0-4.42h-2.252v-2.274h2.252v2.273zm0-4.421h-2.252v-2.273h2.252v2.273z"/>
    <path fill="url(#paint120_linear)" d="M416.574 123.109h-2.252v-2.273h2.252v2.273zm0-4.42h-2.252v-2.274h2.252v2.274zm0-4.421h-2.252v-2.273h2.252v2.273zm0-4.547h-2.252v-2.273h2.252v2.273zm0-4.42h-2.252v-2.273h2.252v2.273zm0-4.42h-2.252v-2.274h2.252v2.274zm0-4.42h-2.252v-2.274h2.252v2.273zm0-4.547h-2.252V89.64h2.252v2.273zm0-4.42h-2.252V85.22h2.252v2.273zm0-4.421h-2.252v-2.274h2.252v2.274zm0-4.42h-2.252v-2.274h2.252v2.273z"/>
    <path fill="url(#paint121_linear)" d="M409.318 149h-2.252v-2.273h2.252V149zm0-4.547h-2.252v-2.273h2.252v2.273zm0-4.42h-2.252v-2.273h2.252v2.273zm0-4.421h-2.252v-2.273h2.252v2.273zm0-4.42h-2.252v-2.273h2.252v2.273zm0-4.547h-2.252v-2.273h2.252v2.273zm0-4.42h-2.252v-2.273h2.252v2.273zm0-4.421h-2.252v-2.273h2.252v2.273zm0-4.42h-2.252v-2.273h2.252v2.273zm0-4.547h-2.252v-2.273h2.252v2.273zm0-4.42h-2.252v-2.273h2.252v2.273zm0-4.42h-2.252v-2.274h2.252v2.273zm0-4.547h-2.252v-2.273h2.252v2.273zm0-4.42h-2.252v-2.148h2.252v2.147zm0-4.421h-2.252v-2.273h2.252v2.273zm0-4.42h-2.252v-2.274h2.252v2.274zm0-4.547h-2.252v-1.768h2.252v1.768z"/>
    <path fill="url(#paint122_linear)" d="M402.187 141.675h-2.251v-2.274h2.251v2.274zm0-4.547h-2.251v-2.273h2.251v2.273zm0-4.42h-2.251v-2.274h2.251v2.274zm0-4.421h-2.251v-2.273h2.251v2.273zm0-4.42h-2.251v-2.274h2.251v2.274zm0-4.547h-2.251v-2.273h2.251v2.273zm0-4.42h-2.251v-2.274h2.251v2.274zm0-4.421h-2.251v-2.273h2.251v2.273zm0-4.546h-2.251v-2.274h2.251v2.274zm0-4.421h-2.251v-2.273h2.251v2.273zm0-4.42h-2.251v-2.274h2.251v2.274zm0-4.42h-2.251v-2.274h2.251v2.273zm0-4.547h-2.251V85.85h2.251v2.274zm0-4.42h-2.251V81.43h2.251v2.273zm0-4.421h-2.251V77.01h2.251v2.274z"/>
    <path fill="url(#paint123_linear)" d="M395.057 128.413h-2.252v-2.273h2.252v2.273zm0-4.42h-2.252v-2.273h2.252v2.273zm0-4.547h-2.252v-2.273h2.252v2.273zm0-4.42h-2.252v-2.273h2.252v2.273zm0-4.42h-2.252v-2.274h2.252v2.274zm0-4.547h-2.252v-2.274h2.252v2.274zm0-4.421h-2.252v-2.273h2.252v2.273zm0-4.42h-2.252v-2.273h2.252v2.273zm0-4.42h-2.252v-2.274h2.252v2.274zm0-4.547h-2.252v-2.273h2.252v2.273zm0-4.42h-2.252v-2.274h2.252v2.273zm0-4.421h-2.252v-2.273h2.252v2.273z"/>
    <path fill="url(#paint124_linear)" d="M387.926 108.458h-2.252v-2.273h2.252v2.273zm0-4.546h-2.252v-2.274h2.252v2.274zm0-4.42h-2.252v-2.274h2.252v2.273zm0-4.421h-2.252v-2.273h2.252v2.273zm0-4.547h-2.252v-2.273h2.252v2.273zm0-4.42h-2.252V83.83h2.252v2.273zm0-4.42h-2.252V79.41h2.252v2.273zm0-4.421h-2.252V76h2.252v1.263z"/>
    <path fill="url(#paint125_linear)" d="M380.67 85.472h-2.252V83.2h2.252v2.273zm0-4.546h-2.252v-2.148h2.252v2.148zm0-4.42h-2.252v-.632h2.252v.631z"/>
    <path fill="url(#paint126_linear)" d="M373.539 92.924h-2.252V90.65h2.252v2.274zm0-4.42h-2.252V86.23h2.252v2.273zm0-4.547h-2.252v-2.274h2.252v2.274zm0-4.42h-2.252v-2.274h2.252v2.273z"/>
    <path fill="url(#paint127_linear)" d="M366.408 102.144h-2.252V99.87h2.252v2.274zm0-4.42h-2.252V95.45h2.252v2.273zm0-4.421h-2.252v-2.274h2.252v2.274zm0-4.547h-2.252v-2.273h2.252v2.273zm0-4.42h-2.252v-2.274h2.252v2.274zm0-4.42h-2.252v-2.274h2.252v2.273z"/>
    <path fill="url(#paint128_linear)" d="M359.277 113.637h-2.252v-2.274h2.252v2.274zm0-4.421h-2.252v-2.273h2.252v2.273zm0-4.42h-2.252v-2.274h2.252v2.274zm0-4.547h-2.252v-2.273h2.252v2.273zm0-4.42h-2.252v-2.274h2.252v2.274zm0-4.42h-2.252v-2.274h2.252v2.273zm0-4.547h-2.252v-2.274h2.252v2.274zm0-4.42h-2.252v-2.274h2.252v2.273zm0-4.421h-2.252v-2.147h2.252v2.147z"/>
    <path fill="url(#paint129_linear)" d="M350.02 120.583v-2.273h2.252v2.273h-2.252zm0-4.42v-2.274h2.252v2.274h-2.252zm0-4.421v-2.273h2.252v2.273h-2.252zm0-4.42v-2.274h2.252v2.274h-2.252zm0-4.547v-2.273h2.252v2.273h-2.252zm0-4.42V96.08h2.252v2.274h-2.252zm0-4.42V91.66h2.252v2.273h-2.252zm0-4.421V87.24h2.252v2.273h-2.252zm0-4.547v-2.273h2.252v2.273h-2.252zm0-4.42v-2.274h2.252v2.274h-2.252zm0-4.42V76h2.252v.126h-2.252z"/>
    <path fill="url(#paint130_linear)" d="M345.016 134.602h-2.252v-2.273h2.252v2.273zm0-4.42h-2.252v-2.274h2.252v2.274zm0-4.421h-2.252v-2.273h2.252v2.273zm0-4.546h-2.252v-2.274h2.252v2.274zm0-4.421h-2.252v-2.273h2.252v2.273zm0-4.42h-2.252V110.1h2.252v2.274zm0-4.421h-2.252v-2.273h2.252v2.273zm0-4.546h-2.252v-2.274h2.252v2.274zm0-4.42h-2.252v-2.274h2.252v2.273zm0-4.421h-2.252v-2.274h2.252v2.274zm0-4.42h-2.252v-2.274h2.252v2.273zm0-4.547h-2.252v-2.274h2.252V85.6zm0-4.42h-2.252v-2.274h2.252v2.273zm0-4.421h-2.252V76h2.252v.758z"/>
    <path fill="url(#paint131_linear)" d="M337.885 123.109h-2.252v-2.273h2.252v2.273zm0-4.42h-2.252v-2.274h2.252v2.274zm0-4.421h-2.252v-2.273h2.252v2.273zm0-4.547h-2.252v-2.273h2.252v2.273zm0-4.42h-2.252v-2.273h2.252v2.273zm0-4.42h-2.252v-2.274h2.252v2.274zm0-4.42h-2.252v-2.274h2.252v2.273zm0-4.547h-2.252V89.64h2.252v2.273zm0-4.42h-2.252V85.22h2.252v2.273zm0-4.421h-2.252v-2.274h2.252v2.274zm0-4.42h-2.252v-2.274h2.252v2.273z"/>
    <path fill="url(#paint132_linear)" d="M330.754 111.868h-2.252v-2.273h2.252v2.273zm0-4.42h-2.252v-2.273h2.252v2.273zm0-4.42h-2.252v-2.274h2.252v2.274zm0-4.547h-2.252v-2.273h2.252v2.273zm0-4.42h-2.252v-2.274h2.252v2.273zm0-4.42h-2.252v-2.274h2.252v2.273zm0-4.421h-2.252v-2.274h2.252v2.274zm0-4.547h-2.252V78.4h2.252v2.273zm0-4.42h-2.252v-.38h2.252v.38z"/>
    <path fill="url(#paint133_linear)" d="M323.498 100.881h-2.252v-2.274h2.252v2.274zm0-4.42h-2.252v-2.274h2.252v2.273zm0-4.421h-2.252v-2.274h2.252v2.274zm0-4.547h-2.252V85.22h2.252v2.273zm0-4.42h-2.252v-2.274h2.252v2.274zm0-4.42h-2.252v-2.274h2.252v2.273z"/>
    <path fill="url(#paint134_linear)" d="M316.367 82.189h-2.252v-2.274h2.252v2.274zm0-4.42h-2.252V76h2.252v1.768z"/>
    <path fill="url(#paint135_linear)" d="M309.236 93.682h-2.252v-2.274h2.252v2.274zm0-4.42h-2.252v-2.274h2.252v2.273zm0-4.547h-2.252v-2.148h2.252v2.148zm0-4.42h-2.252V78.02h2.252v2.273z"/>
    <path fill="url(#paint136_linear)" d="M302.105 102.901h-2.251v-2.273h2.251v2.273zm0-4.42h-2.251v-2.273h2.251v2.273zm0-4.42h-2.251v-2.274h2.251v2.274zm0-4.42h-2.251v-2.274h2.251v2.273zm0-4.548h-2.251V82.82h2.251v2.273zm0-4.42h-2.251V78.4h2.251v2.273zm0-4.42h-2.251V76h2.251v.253z"/>
    <path fill="url(#paint137_linear)" d="M294.975 112.5h-2.252v-2.147h2.252v2.147zm0-4.42h-2.252v-2.274h2.252v2.274zm0-4.421h-2.252v-2.273h2.252v2.273zm0-4.547h-2.252V96.84h2.252v2.273zm0-4.42h-2.252v-2.273h2.252v2.273zm0-4.42h-2.252v-2.274h2.252v2.274zm0-4.42h-2.252v-2.274h2.252v2.273zm0-4.547h-2.252V79.03h2.252v2.273zm0-4.42h-2.252v-1.011h2.252v1.01z"/>
    <path fill="url(#paint138_linear)" d="M287.719 125.003h-2.252v-2.273h2.252v2.273zm0-4.42h-2.252v-2.273h2.252v2.273zm0-4.547h-2.252v-2.273h2.252v2.273zm0-4.42h-2.252v-2.273h2.252v2.273zm0-4.421h-2.252v-2.273h2.252v2.273zm0-4.42h-2.252v-2.273h2.252v2.273zm0-4.547h-2.252v-2.273h2.252v2.273zm0-4.42h-2.252v-2.273h2.252v2.273zm0-4.42h-2.252v-2.274h2.252v2.273zm0-4.42h-2.252v-2.274h2.252v2.273zm0-4.548h-2.252v-2.273h2.252v2.273z"/>
    <path fill="url(#paint139_linear)" d="M280.588 145.337h-2.252v-2.147h2.252v2.147zm0-4.42h-2.252v-2.273h2.252v2.273zm0-4.42h-2.252v-2.274h2.252v2.274zm0-4.421h-2.252v-2.273h2.252v2.273zm0-4.547h-2.252v-2.273h2.252v2.273zm0-4.42h-2.252v-2.273h2.252v2.273zm0-4.42h-2.252v-2.274h2.252v2.274zm0-4.547h-2.252v-2.273h2.252v2.273zm0-4.421h-2.252v-2.273h2.252v2.273zm0-4.42h-2.252v-2.273h2.252v2.273zm0-4.42h-2.252v-2.274h2.252v2.274zm0-4.547h-2.252V94.06h2.252v2.273zm0-4.42h-2.252V89.64h2.252v2.273zm0-4.42h-2.252V85.22h2.252v2.273zm0-4.421h-2.252v-2.274h2.252v2.274zm0-4.547h-2.252v-2.273h2.252v2.273z"/>
    <path fill="url(#paint140_linear)" d="M273.457 138.77h-2.252v-2.273h2.252v2.273zm0-4.547h-2.252v-2.273h2.252v2.273zm0-4.42h-2.252v-2.274h2.252v2.274zm0-4.421h-2.252v-2.273h2.252v2.273zm0-4.42h-2.252v-2.273h2.252v2.273zm0-4.547h-2.252v-2.273h2.252v2.273zm0-4.42h-2.252v-2.274h2.252v2.274zm0-4.421h-2.252v-2.273h2.252v2.273zm0-4.546h-2.252v-2.274h2.252v2.274zm0-4.42h-2.252V96.46h2.252v2.147zm0-4.421h-2.252v-2.273h2.252v2.273zm0-4.42h-2.252v-2.274h2.252v2.273zm0-4.547h-2.252v-2.274h2.252v2.274zm0-4.42h-2.252v-2.274h2.252v2.273zm0-4.421h-2.252V76h2.252v.379z"/>
    <path fill="url(#paint141_linear)" d="M266.326 127.656h-2.252v-2.147h2.252v2.147zm0-4.421h-2.252v-2.273h2.252v2.273zm0-4.42h-2.252v-2.273h2.252v2.273zm0-4.421h-2.252v-2.273h2.252v2.273zm0-4.546h-2.252v-2.274h2.252v2.274zm0-4.421h-2.252v-2.273h2.252v2.273zm0-4.42h-2.252v-2.273h2.252v2.273zm0-4.42h-2.252v-2.274h2.252v2.273zm0-4.547h-2.252v-2.274h2.252v2.274zm0-4.42h-2.252v-2.274h2.252v2.273zm0-4.421h-2.252v-2.273h2.252v2.273zm0-4.547h-2.252V76.38h2.252v2.273z"/>
    <path fill="url(#paint142_linear)" d="M259.195 116.92h-2.252v-2.273h2.252v2.273zm0-4.42h-2.252v-2.273h2.252v2.273zm0-4.547h-2.252v-2.273h2.252v2.273zm0-4.42h-2.252v-2.273h2.252v2.273zm0-4.42h-2.252v-2.274h2.252v2.273zm0-4.547h-2.252v-2.274h2.252v2.274zm0-4.42h-2.252v-2.274h2.252v2.273zm0-4.421h-2.252v-2.273h2.252v2.273zm0-4.42h-2.252V79.03h2.252v2.273zm0-4.547h-2.252v-.884h2.252v.884z"/>
    <path fill="url(#paint143_linear)" d="M249.938 91.156v-2.274h2.251v2.274h-2.251zm0-4.547v-2.273h2.251v2.273h-2.251zm0-4.42v-2.274h2.251v2.274h-2.251zm0-4.42V76h2.251v1.768h-2.251z"/>
    <path fill="url(#paint144_linear)" d="M244.934 84.967h-2.252v-2.273h2.252v2.273zm0-4.547h-2.252v-2.273h2.252v2.273z"/>
    <path fill="url(#paint145_linear)" d="M237.678 124.877h-2.252v-2.273h2.252v2.273zm0-4.42h-2.252v-2.274h2.252v2.274zm0-4.421h-2.252v-2.273h2.252v2.273zm0-4.546h-2.252v-2.274h2.252v2.274zm0-4.421h-2.252v-2.273h2.252v2.273zm0-4.42h-2.252v-2.274h2.252v2.274zm0-4.547h-2.252V95.83h2.252v2.273zm0-4.42h-2.252v-2.274h2.252v2.274zm0-4.42h-2.252v-2.274h2.252v2.273zm0-4.421h-2.252v-2.273h2.252v2.273zm0-4.547h-2.252v-2.273h2.252v2.273z"/>
    <path fill="url(#paint146_linear)" d="M230.547 112.247h-2.252v-2.273h2.252v2.273zm0-4.42h-2.252v-2.273h2.252v2.273zm0-4.547h-2.252v-2.273h2.252v2.273zm0-4.42h-2.252v-2.273h2.252v2.273zm0-4.42h-2.252v-2.274h2.252v2.273zm0-4.42h-2.252v-2.274h2.252v2.273zm0-4.548h-2.252V83.2h2.252v2.273zm0-4.42h-2.252v-2.273h2.252v2.273zm0-4.42h-2.252V76h2.252v.632z"/>
    <path fill="url(#paint147_linear)" d="M223.416 85.599h-2.252v-2.274h2.252V85.6zm0-4.42h-2.252v-2.274h2.252v2.273zm0-4.547h-2.252v-.758h2.252v.758z"/>
    <path fill="url(#paint148_linear)" d="M216.285 90.398h-2.252v-2.273h2.252v2.273zm0-4.42h-2.252v-2.274h2.252v2.274zm0-4.547h-2.252v-2.274h2.252v2.274zm0-4.42h-2.252v-1.137h2.252v1.136z"/>
    <path fill="url(#paint149_linear)" d="M209.154 121.215h-2.252v-2.274h2.252v2.274zm0-4.421h-2.252v-2.273h2.252v2.273zm0-4.42h-2.252V110.1h2.252v2.274zm0-4.421h-2.252v-2.273h2.252v2.273zm0-4.546h-2.252v-2.274h2.252v2.274zm0-4.42h-2.252v-2.274h2.252v2.273zm0-4.421h-2.252v-2.274h2.252v2.274zm0-4.42h-2.252v-2.274h2.252v2.273zm0-4.547h-2.252v-2.274h2.252V85.6zm0-4.42h-2.252v-2.274h2.252v2.273zm0-4.421h-2.252V76h2.252v.758z"/>
    <path fill="url(#paint150_linear)" d="M202.023 113.131h-2.251v-2.273h2.251v2.273zm0-4.42h-2.251v-2.273h2.251v2.273zm0-4.42h-2.251v-2.274h2.251v2.274zm0-4.42h-2.251v-2.274h2.251v2.273zm0-4.547h-2.251V93.05h2.251v2.273zm0-4.42h-2.251V88.63h2.251v2.273zm0-4.421h-2.251v-2.274h2.251v2.274zm0-4.547h-2.251v-2.273h2.251v2.273zm0-4.42h-2.251v-1.642h2.251v1.642z"/>
    <path fill="url(#paint151_linear)" d="M194.893 105.806h-2.252v-2.273h2.252v2.273zm0-4.42h-2.252v-2.273h2.252v2.273zm0-4.42h-2.252v-2.274h2.252v2.273zm0-4.547h-2.252v-2.274h2.252v2.274zm0-4.42h-2.252v-2.274h2.252v2.273zm0-4.421h-2.252v-2.273h2.252v2.273zm0-4.42h-2.252v-2.274h2.252v2.273z"/>
    <path fill="url(#paint152_linear)" d="M187.637 144.074h-2.252v-2.147h2.252v2.147zm0-4.42h-2.252v-2.273h2.252v2.273zm0-4.42h-2.252v-2.274h2.252v2.274zm0-4.421h-2.252v-2.273h2.252v2.273zm0-4.547h-2.252v-2.273h2.252v2.273zm0-4.42h-2.252v-2.273h2.252v2.273zm0-4.42h-2.252v-2.274h2.252v2.274zm0-4.421h-2.252v-2.273h2.252v2.273zm0-4.547h-2.252v-2.273h2.252v2.273zm0-4.42h-2.252v-2.273h2.252v2.273zm0-4.42h-2.252v-2.274h2.252v2.274zm0-4.547h-2.252v-2.273h2.252v2.273zm0-4.42h-2.252v-2.274h2.252v2.273zm0-4.42h-2.252v-2.274h2.252v2.273zm0-4.421h-2.252v-2.274h2.252v2.274zm0-4.547h-2.252v-1.39h2.252v1.39z"/>
    <path fill="url(#paint153_linear)" d="M180.506 134.981h-2.252v-2.273h2.252v2.273zm0-4.42h-2.252v-2.274h2.252v2.274zm0-4.547h-2.252v-2.274h2.252v2.274zm0-4.421h-2.252v-2.273h2.252v2.273zm0-4.42h-2.252V114.9h2.252v2.273zm0-4.42h-2.252v-2.274h2.252v2.274zm0-4.547h-2.252v-2.273h2.252v2.273zm0-4.421h-2.252v-2.273h2.252v2.273zm0-4.42h-2.252v-2.273h2.252v2.273zm0-4.42h-2.252V92.67h2.252v2.274zm0-4.547h-2.252v-2.273h2.252v2.273zm0-4.42h-2.252v-2.274h2.252v2.274zm0-4.42h-2.252v-2.274h2.252v2.273zm0-4.548h-2.252v-1.136h2.252v1.136z"/>
    <path fill="url(#paint154_linear)" d="M173.375 121.72h-2.252v-2.274h2.252v2.274zm0-4.421h-2.252v-2.273h2.252v2.273zm0-4.42h-2.252v-2.273h2.252v2.273zm0-4.421h-2.252v-2.273h2.252v2.273zm0-4.546h-2.252v-2.274h2.252v2.274zm0-4.42h-2.252v-2.274h2.252v2.273zm0-4.421h-2.252v-2.273h2.252v2.273zm0-4.42h-2.252v-2.274h2.252v2.273zm0-4.547h-2.252V83.83h2.252v2.273zm0-4.42h-2.252V79.41h2.252v2.273zm0-4.421h-2.252V76h2.252v1.263z"/>
    <path fill="url(#paint155_linear)" d="M166.244 116.163h-2.252v-2.274h2.252v2.274zm0-4.421h-2.252v-2.273h2.252v2.273zm0-4.42h-2.252v-2.274h2.252v2.274zm0-4.547h-2.252v-2.273h2.252v2.273zm0-4.42h-2.252V96.08h2.252v2.274zm0-4.42h-2.252V91.66h2.252v2.273zm0-4.547h-2.252v-2.274h2.252v2.274zm0-4.42h-2.252v-2.274h2.252v2.273zm0-4.421h-2.252v-2.274h2.252v2.274zm0-4.42h-2.252V76h2.252v.126z"/>
    <path fill="url(#paint156_linear)" d="M159.113 109.216h-2.252v-2.273h2.252v2.273zm0-4.42h-2.252v-2.274h2.252v2.274zm0-4.421h-2.252v-2.273h2.252v2.273zm0-4.546h-2.252v-2.274h2.252v2.274zm0-4.42h-2.252v-2.274h2.252v2.273zm0-4.421h-2.252v-2.273h2.252v2.273zm0-4.42h-2.252v-2.274h2.252v2.273zm0-4.547h-2.252v-2.147h2.252v2.147z"/>
    <path fill="url(#paint157_linear)" d="M149.856 93.05v-2.273h2.251v2.273h-2.251zm0-4.42v-2.274h2.251v2.274h-2.251zm0-4.42v-2.274h2.251v2.273h-2.251zm0-4.547v-2.147h2.251v2.147h-2.251z"/>
    <path fill="url(#paint158_linear)" d="M144.726 85.093h-2.251V82.82h2.251v2.273zm0-4.42h-2.251V78.4h2.251v2.273zm0-4.547h-2.251v-.252h2.251v.252z"/>
    <path fill="url(#paint159_linear)" d="M137.596 99.618h-2.252v-2.274h2.252v2.274zm0-4.547h-2.252v-2.273h2.252v2.273zm0-4.42h-2.252v-2.274h2.252v2.273zm0-4.42h-2.252v-2.274h2.252v2.273zm0-4.421h-2.252v-2.274h2.252v2.274zm0-4.547h-2.252v-1.39h2.252v1.39z"/>
    <path fill="url(#paint160_linear)" d="M130.465 119.067h-2.252v-2.273h2.252v2.273zm0-4.42h-2.252v-2.273h2.252v2.273zm0-4.547h-2.252v-2.273h2.252v2.273zm0-4.42h-2.252v-2.273h2.252v2.273zm0-4.421h-2.252v-2.273h2.252v2.273zm0-4.42h-2.252v-2.273h2.252v2.273zm0-4.547h-2.252v-2.147h2.252v2.147zm0-4.42h-2.252v-2.273h2.252v2.273zm0-4.42h-2.252v-2.274h2.252v2.273zm0-4.42h-2.252v-2.274h2.252v2.273z"/>
    <path fill="url(#paint161_linear)" d="M123.334 102.901h-2.252v-2.273h2.252v2.273zm0-4.42h-2.252v-2.273h2.252v2.273zm0-4.42h-2.252v-2.274h2.252v2.273zm0-4.547h-2.252V87.24h2.252v2.273zm0-4.42h-2.252V82.82h2.252v2.273zm0-4.421h-2.252V78.4h2.252v2.273zm0-4.547h-2.252v-.252h2.252v.252z"/>
    <path fill="url(#paint162_linear)" d="M116.203 109.216h-2.252v-2.273h2.252v2.273zm0-4.42h-2.252v-2.274h2.252v2.274zm0-4.421h-2.252v-2.273h2.252v2.273zm0-4.546h-2.252v-2.274h2.252v2.274zm0-4.42h-2.252v-2.274h2.252v2.273zm0-4.421h-2.252v-2.273h2.252v2.273zm0-4.42h-2.252v-2.274h2.252v2.273zm0-4.547h-2.252v-2.147h2.252v2.147z"/>
    <path fill="url(#paint163_linear)" d="M109.072 93.934h-2.252v-2.273h2.252v2.273zm0-4.42h-2.252V87.24h2.252v2.273zm0-4.547h-2.252v-2.273h2.252v2.273zm0-4.42h-2.252v-2.274h2.252v2.274z"/>
    <path fill="url(#paint164_linear)" d="M101.941 130.939h-2.252v-2.273h2.252v2.273zm0-4.546h-2.252v-2.147h2.252v2.147zm0-4.421h-2.252v-2.273h2.252v2.273zm0-4.42h-2.252v-2.273h2.252v2.273zm0-4.421h-2.252v-2.273h2.252v2.273zm0-4.546h-2.252v-2.274h2.252v2.274zm0-4.421h-2.252v-2.273h2.252v2.273zm0-4.42h-2.252V97.47h2.252v2.273zm0-4.547h-2.252v-2.273h2.252v2.273zm0-4.42h-2.252v-2.274h2.252v2.274zm0-4.42h-2.252v-2.274h2.252v2.273zm0-4.421h-2.252v-2.273h2.252v2.273zm0-4.547h-2.252v-1.515h2.252v1.515z"/>
    <path fill="url(#paint165_linear)" d="M94.685 120.078h-2.252v-2.273h2.252v2.273zm0-4.421h-2.252v-2.273h2.252v2.273zm0-4.546h-2.252v-2.274h2.252v2.274zm0-4.421h-2.252v-2.273h2.252v2.273zm0-4.42h-2.252v-2.273h2.252v2.273zm0-4.42h-2.252v-2.274h2.252v2.274zm0-4.547h-2.252v-2.274h2.252v2.274zm0-4.42h-2.252v-2.274h2.252v2.273zm0-4.421h-2.252v-2.273h2.252v2.273zm0-4.547h-2.252v-2.273h2.252v2.273z"/>
    <path fill="url(#paint166_linear)" d="M87.555 114.394h-2.252v-2.273h2.252v2.273zm0-4.42h-2.252v-2.273h2.252v2.273zm0-4.547h-2.252v-2.273h2.252v2.273zm0-4.42h-2.252v-2.273h2.252v2.273zm0-4.42h-2.252v-2.274h2.252v2.273zm0-4.42h-2.252v-2.274h2.252v2.273zm0-4.548h-2.252v-2.273h2.252v2.273zm0-4.42h-2.252v-2.273h2.252v2.273zm0-4.42h-2.252v-2.274h2.252v2.273z"/>
    <path fill="url(#paint167_linear)" d="M80.424 132.834h-2.252v-2.273h2.252v2.273zm0-4.421h-2.252v-2.273h2.252v2.273zm0-4.42h-2.252v-2.273h2.252v2.273zm0-4.42h-2.252v-2.274h2.252v2.274zm0-4.547h-2.252v-2.147h2.252v2.147zm0-4.42h-2.252v-2.274h2.252v2.274zm0-4.421h-2.252v-2.273h2.252v2.273zm0-4.42h-2.252v-2.274h2.252v2.274zm0-4.547h-2.252v-2.273h2.252v2.273zm0-4.42h-2.252v-2.274h2.252v2.274zm0-4.42h-2.252v-2.274h2.252v2.273zm0-4.548h-2.252v-2.273h2.252v2.273zm0-4.42h-2.252v-2.273h2.252v2.273z"/>
    <path fill="url(#paint168_linear)" d="M73.293 124.877H71.04v-2.273h2.252v2.273zm0-4.42H71.04v-2.274h2.252v2.274zm0-4.421H71.04v-2.273h2.252v2.273zm0-4.546H71.04v-2.274h2.252v2.274zm0-4.421H71.04v-2.273h2.252v2.273zm0-4.42H71.04v-2.274h2.252v2.274zm0-4.547H71.04V95.83h2.252v2.273zm0-4.42H71.04v-2.274h2.252v2.274zm0-4.42H71.04v-2.274h2.252v2.273zm0-4.421H71.04v-2.273h2.252v2.273zm0-4.547H71.04v-2.273h2.252v2.273z"/>
    <path fill="url(#paint169_linear)" d="M66.162 85.599H63.91v-2.274h2.252V85.6zm0-4.42H63.91v-2.274h2.252v2.273zm0-4.547H63.91v-.758h2.252v.758z"/>
    <path fill="url(#paint170_linear)" d="M58.906 85.599h-2.252v-2.274h2.252V85.6zm0-4.42h-2.252v-2.274h2.252v2.273zm0-4.547h-2.252v-.758h2.252v.758z"/>
    <path fill="url(#paint171_linear)" d="M51.775 93.66h-2.252v-2.272h2.252v2.273zm0-4.42h-2.252v-2.273h2.252v2.273zm0-4.42h-2.252v-2.273h2.252v2.273zm0-4.547h-2.252V78h2.252v2.273z"/>
    <path fill="url(#paint172_linear)" d="M44.644 106.438h-2.252v-2.274h2.252v2.274zm0-4.547h-2.252v-2.273h2.252v2.273zm0-4.42h-2.252v-2.274h2.252v2.274zm0-4.42h-2.252v-2.274h2.252v2.273zm0-4.421h-2.252v-2.274h2.252v2.274zm0-4.547h-2.252V81.81h2.252v2.273zm0-4.42h-2.252v-2.274h2.252v2.274z"/>
    <path fill="url(#paint173_linear)" d="M37.514 95.955h-2.252v-2.273h2.252v2.273zm0-4.42h-2.252V89.26h2.252v2.274zm0-4.547h-2.252v-2.273h2.252v2.273zm0-4.42h-2.252v-2.274h2.252v2.273zm0-4.42h-2.252V76h2.252v2.147z"/>
    <path fill="url(#paint174_linear)" d="M30.383 90.272H28.13v-2.274h2.252v2.274zm0-4.42H28.13v-2.274h2.252v2.273zm0-4.421H28.13v-2.273h2.252v2.273zm0-4.42H28.13V76h2.252v1.01z"/>
    <path fill="url(#paint175_linear)" d="M23.252 84.715H21V82.44h2.252v2.273zm0-4.42H21V78.02h2.252v2.273z"/>
  </g>
  <defs>
    <linearGradient id="paint0_linear" x1="1" x2="403.56" y1="83.5" y2="83.5" gradientUnits="userSpaceOnUse">
      <stop offset=".234" stop-color="#C3E2DE"/>
      <stop offset=".734" stop-color="#EDFBF9"/>
    </linearGradient>
    <linearGradient id="paint1_linear" x1="1" x2="403.56" y1="83.5" y2="83.5" gradientUnits="userSpaceOnUse">
      <stop/>
      <stop offset="1" stop-color="#1A7F72" stop-opacity="0"/>
    </linearGradient>
    <linearGradient id="paint2_linear" x1="1" x2="630" y1="83.5" y2="83.5" gradientUnits="userSpaceOnUse">
      <stop offset=".281" stop-color="#C3E2DE"/>
      <stop offset=".505" stop-color="#CFF1ED"/>
      <stop offset="1" stop-color="#EDFBF9"/>
    </linearGradient>
    <linearGradient id="paint3_linear" x1="1" x2="630" y1="83.5" y2="83.5" gradientUnits="userSpaceOnUse">
      <stop stop-color="#1E9787"/>
      <stop offset=".51" stop-color="#1A7F72" stop-opacity=".38"/>
      <stop offset=".76" stop-color="#1A7F72" stop-opacity=".13"/>
      <stop offset=".943" stop-color="#1A7F72" stop-opacity=".04"/>
    </linearGradient>
    <linearGradient id="paint4_linear" x1="21" x2="611.292" y1="83.3" y2="83.3" gradientUnits="userSpaceOnUse">
      <stop stop-color="#1A7F72" stop-opacity=".46"/>
      <stop offset="1" stop-color="#1A7F72" stop-opacity="0"/>
    </linearGradient>
    <linearGradient id="paint5_linear" x1="21" x2="611.292" y1="83.3" y2="83.3" gradientUnits="userSpaceOnUse">
      <stop stop-color="#1A7F72" stop-opacity=".46"/>
      <stop offset="1" stop-color="#1A7F72" stop-opacity="0"/>
    </linearGradient>
    <linearGradient id="paint6_linear" x1="21" x2="611.292" y1="83.3" y2="83.3" gradientUnits="userSpaceOnUse">
      <stop stop-color="#1A7F72" stop-opacity=".46"/>
      <stop offset="1" stop-color="#1A7F72" stop-opacity="0"/>
    </linearGradient>
    <linearGradient id="paint7_linear" x1="21" x2="611.292" y1="83.3" y2="83.3" gradientUnits="userSpaceOnUse">
      <stop stop-color="#1A7F72" stop-opacity=".46"/>
      <stop offset="1" stop-color="#1A7F72" stop-opacity="0"/>
    </linearGradient>
    <linearGradient id="paint8_linear" x1="21" x2="611.292" y1="83.3" y2="83.3" gradientUnits="userSpaceOnUse">
      <stop stop-color="#1A7F72" stop-opacity=".46"/>
      <stop offset="1" stop-color="#1A7F72" stop-opacity="0"/>
    </linearGradient>
    <linearGradient id="paint9_linear" x1="21" x2="611.292" y1="83.3" y2="83.3" gradientUnits="userSpaceOnUse">
      <stop stop-color="#1A7F72" stop-opacity=".46"/>
      <stop offset="1" stop-color="#1A7F72" stop-opacity="0"/>
    </linearGradient>
    <linearGradient id="paint10_linear" x1="21" x2="611.292" y1="83.3" y2="83.3" gradientUnits="userSpaceOnUse">
      <stop stop-color="#1A7F72" stop-opacity=".46"/>
      <stop offset="1" stop-color="#1A7F72" stop-opacity="0"/>
    </linearGradient>
    <linearGradient id="paint11_linear" x1="21" x2="611.292" y1="83.3" y2="83.3" gradientUnits="userSpaceOnUse">
      <stop stop-color="#1A7F72" stop-opacity=".46"/>
      <stop offset="1" stop-color="#1A7F72" stop-opacity="0"/>
    </linearGradient>
    <linearGradient id="paint12_linear" x1="21" x2="611.292" y1="83.3" y2="83.3" gradientUnits="userSpaceOnUse">
      <stop stop-color="#1A7F72" stop-opacity=".46"/>
      <stop offset="1" stop-color="#1A7F72" stop-opacity="0"/>
    </linearGradient>
    <linearGradient id="paint13_linear" x1="21" x2="611.292" y1="83.3" y2="83.3" gradientUnits="userSpaceOnUse">
      <stop stop-color="#1A7F72" stop-opacity=".46"/>
      <stop offset="1" stop-color="#1A7F72" stop-opacity="0"/>
    </linearGradient>
    <linearGradient id="paint14_linear" x1="21" x2="611.292" y1="83.3" y2="83.3" gradientUnits="userSpaceOnUse">
      <stop stop-color="#1A7F72" stop-opacity=".46"/>
      <stop offset="1" stop-color="#1A7F72" stop-opacity="0"/>
    </linearGradient>
    <linearGradient id="paint15_linear" x1="21" x2="611.292" y1="83.3" y2="83.3" gradientUnits="userSpaceOnUse">
      <stop stop-color="#1A7F72" stop-opacity=".46"/>
      <stop offset="1" stop-color="#1A7F72" stop-opacity="0"/>
    </linearGradient>
    <linearGradient id="paint16_linear" x1="21" x2="611.292" y1="83.3" y2="83.3" gradientUnits="userSpaceOnUse">
      <stop stop-color="#1A7F72" stop-opacity=".46"/>
      <stop offset="1" stop-color="#1A7F72" stop-opacity="0"/>
    </linearGradient>
    <linearGradient id="paint17_linear" x1="21" x2="611.292" y1="83.3" y2="83.3" gradientUnits="userSpaceOnUse">
      <stop stop-color="#1A7F72" stop-opacity=".46"/>
      <stop offset="1" stop-color="#1A7F72" stop-opacity="0"/>
    </linearGradient>
    <linearGradient id="paint18_linear" x1="21" x2="611.292" y1="83.3" y2="83.3" gradientUnits="userSpaceOnUse">
      <stop stop-color="#1A7F72" stop-opacity=".46"/>
      <stop offset="1" stop-color="#1A7F72" stop-opacity="0"/>
    </linearGradient>
    <linearGradient id="paint19_linear" x1="21" x2="611.292" y1="83.3" y2="83.3" gradientUnits="userSpaceOnUse">
      <stop stop-color="#1A7F72" stop-opacity=".46"/>
      <stop offset="1" stop-color="#1A7F72" stop-opacity="0"/>
    </linearGradient>
    <linearGradient id="paint20_linear" x1="21" x2="611.292" y1="83.3" y2="83.3" gradientUnits="userSpaceOnUse">
      <stop stop-color="#1A7F72" stop-opacity=".46"/>
      <stop offset="1" stop-color="#1A7F72" stop-opacity="0"/>
    </linearGradient>
    <linearGradient id="paint21_linear" x1="21" x2="611.292" y1="83.3" y2="83.3" gradientUnits="userSpaceOnUse">
      <stop stop-color="#1A7F72" stop-opacity=".46"/>
      <stop offset="1" stop-color="#1A7F72" stop-opacity="0"/>
    </linearGradient>
    <linearGradient id="paint22_linear" x1="21" x2="611.292" y1="83.3" y2="83.3" gradientUnits="userSpaceOnUse">
      <stop stop-color="#1A7F72" stop-opacity=".46"/>
      <stop offset="1" stop-color="#1A7F72" stop-opacity="0"/>
    </linearGradient>
    <linearGradient id="paint23_linear" x1="21" x2="611.292" y1="83.3" y2="83.3" gradientUnits="userSpaceOnUse">
      <stop stop-color="#1A7F72" stop-opacity=".46"/>
      <stop offset="1" stop-color="#1A7F72" stop-opacity="0"/>
    </linearGradient>
    <linearGradient id="paint24_linear" x1="21" x2="611.292" y1="83.3" y2="83.3" gradientUnits="userSpaceOnUse">
      <stop stop-color="#1A7F72" stop-opacity=".46"/>
      <stop offset="1" stop-color="#1A7F72" stop-opacity="0"/>
    </linearGradient>
    <linearGradient id="paint25_linear" x1="21" x2="611.292" y1="83.3" y2="83.3" gradientUnits="userSpaceOnUse">
      <stop stop-color="#1A7F72" stop-opacity=".46"/>
      <stop offset="1" stop-color="#1A7F72" stop-opacity="0"/>
    </linearGradient>
    <linearGradient id="paint26_linear" x1="21" x2="611.292" y1="83.3" y2="83.3" gradientUnits="userSpaceOnUse">
      <stop stop-color="#1A7F72" stop-opacity=".46"/>
      <stop offset="1" stop-color="#1A7F72" stop-opacity="0"/>
    </linearGradient>
    <linearGradient id="paint27_linear" x1="21" x2="611.292" y1="83.3" y2="83.3" gradientUnits="userSpaceOnUse">
      <stop stop-color="#1A7F72" stop-opacity=".46"/>
      <stop offset="1" stop-color="#1A7F72" stop-opacity="0"/>
    </linearGradient>
    <linearGradient id="paint28_linear" x1="21" x2="611.292" y1="83.3" y2="83.3" gradientUnits="userSpaceOnUse">
      <stop stop-color="#1A7F72" stop-opacity=".46"/>
      <stop offset="1" stop-color="#1A7F72" stop-opacity="0"/>
    </linearGradient>
    <linearGradient id="paint29_linear" x1="21" x2="611.292" y1="83.3" y2="83.3" gradientUnits="userSpaceOnUse">
      <stop stop-color="#1A7F72" stop-opacity=".46"/>
      <stop offset="1" stop-color="#1A7F72" stop-opacity="0"/>
    </linearGradient>
    <linearGradient id="paint30_linear" x1="21" x2="611.292" y1="83.3" y2="83.3" gradientUnits="userSpaceOnUse">
      <stop stop-color="#1A7F72" stop-opacity=".46"/>
      <stop offset="1" stop-color="#1A7F72" stop-opacity="0"/>
    </linearGradient>
    <linearGradient id="paint31_linear" x1="21" x2="611.292" y1="83.3" y2="83.3" gradientUnits="userSpaceOnUse">
      <stop stop-color="#1A7F72" stop-opacity=".46"/>
      <stop offset="1" stop-color="#1A7F72" stop-opacity="0"/>
    </linearGradient>
    <linearGradient id="paint32_linear" x1="21" x2="611.292" y1="83.3" y2="83.3" gradientUnits="userSpaceOnUse">
      <stop stop-color="#1A7F72" stop-opacity=".46"/>
      <stop offset="1" stop-color="#1A7F72" stop-opacity="0"/>
    </linearGradient>
    <linearGradient id="paint33_linear" x1="21" x2="611.292" y1="83.3" y2="83.3" gradientUnits="userSpaceOnUse">
      <stop stop-color="#1A7F72" stop-opacity=".46"/>
      <stop offset="1" stop-color="#1A7F72" stop-opacity="0"/>
    </linearGradient>
    <linearGradient id="paint34_linear" x1="21" x2="611.292" y1="83.3" y2="83.3" gradientUnits="userSpaceOnUse">
      <stop stop-color="#1A7F72" stop-opacity=".46"/>
      <stop offset="1" stop-color="#1A7F72" stop-opacity="0"/>
    </linearGradient>
    <linearGradient id="paint35_linear" x1="21" x2="611.292" y1="83.3" y2="83.3" gradientUnits="userSpaceOnUse">
      <stop stop-color="#1A7F72" stop-opacity=".46"/>
      <stop offset="1" stop-color="#1A7F72" stop-opacity="0"/>
    </linearGradient>
    <linearGradient id="paint36_linear" x1="21" x2="611.292" y1="83.3" y2="83.3" gradientUnits="userSpaceOnUse">
      <stop stop-color="#1A7F72" stop-opacity=".46"/>
      <stop offset="1" stop-color="#1A7F72" stop-opacity="0"/>
    </linearGradient>
    <linearGradient id="paint37_linear" x1="21" x2="611.292" y1="83.3" y2="83.3" gradientUnits="userSpaceOnUse">
      <stop stop-color="#1A7F72" stop-opacity=".46"/>
      <stop offset="1" stop-color="#1A7F72" stop-opacity="0"/>
    </linearGradient>
    <linearGradient id="paint38_linear" x1="21" x2="611.292" y1="83.3" y2="83.3" gradientUnits="userSpaceOnUse">
      <stop stop-color="#1A7F72" stop-opacity=".46"/>
      <stop offset="1" stop-color="#1A7F72" stop-opacity="0"/>
    </linearGradient>
    <linearGradient id="paint39_linear" x1="21" x2="611.292" y1="83.3" y2="83.3" gradientUnits="userSpaceOnUse">
      <stop stop-color="#1A7F72" stop-opacity=".46"/>
      <stop offset="1" stop-color="#1A7F72" stop-opacity="0"/>
    </linearGradient>
    <linearGradient id="paint40_linear" x1="21" x2="611.292" y1="83.3" y2="83.3" gradientUnits="userSpaceOnUse">
      <stop stop-color="#1A7F72" stop-opacity=".46"/>
      <stop offset="1" stop-color="#1A7F72" stop-opacity="0"/>
    </linearGradient>
    <linearGradient id="paint41_linear" x1="21" x2="611.292" y1="83.3" y2="83.3" gradientUnits="userSpaceOnUse">
      <stop stop-color="#1A7F72" stop-opacity=".46"/>
      <stop offset="1" stop-color="#1A7F72" stop-opacity="0"/>
    </linearGradient>
    <linearGradient id="paint42_linear" x1="21" x2="611.292" y1="83.3" y2="83.3" gradientUnits="userSpaceOnUse">
      <stop stop-color="#1A7F72" stop-opacity=".46"/>
      <stop offset="1" stop-color="#1A7F72" stop-opacity="0"/>
    </linearGradient>
    <linearGradient id="paint43_linear" x1="21" x2="611.292" y1="83.3" y2="83.3" gradientUnits="userSpaceOnUse">
      <stop stop-color="#1A7F72" stop-opacity=".46"/>
      <stop offset="1" stop-color="#1A7F72" stop-opacity="0"/>
    </linearGradient>
    <linearGradient id="paint44_linear" x1="21" x2="611.292" y1="83.3" y2="83.3" gradientUnits="userSpaceOnUse">
      <stop stop-color="#1A7F72" stop-opacity=".46"/>
      <stop offset="1" stop-color="#1A7F72" stop-opacity="0"/>
    </linearGradient>
    <linearGradient id="paint45_linear" x1="21" x2="611.292" y1="83.3" y2="83.3" gradientUnits="userSpaceOnUse">
      <stop stop-color="#1A7F72" stop-opacity=".46"/>
      <stop offset="1" stop-color="#1A7F72" stop-opacity="0"/>
    </linearGradient>
    <linearGradient id="paint46_linear" x1="21" x2="611.292" y1="83.3" y2="83.3" gradientUnits="userSpaceOnUse">
      <stop stop-color="#1A7F72" stop-opacity=".46"/>
      <stop offset="1" stop-color="#1A7F72" stop-opacity="0"/>
    </linearGradient>
    <linearGradient id="paint47_linear" x1="21" x2="611.292" y1="83.3" y2="83.3" gradientUnits="userSpaceOnUse">
      <stop stop-color="#1A7F72" stop-opacity=".46"/>
      <stop offset="1" stop-color="#1A7F72" stop-opacity="0"/>
    </linearGradient>
    <linearGradient id="paint48_linear" x1="21" x2="611.292" y1="83.3" y2="83.3" gradientUnits="userSpaceOnUse">
      <stop stop-color="#1A7F72" stop-opacity=".46"/>
      <stop offset="1" stop-color="#1A7F72" stop-opacity="0"/>
    </linearGradient>
    <linearGradient id="paint49_linear" x1="21" x2="611.292" y1="83.3" y2="83.3" gradientUnits="userSpaceOnUse">
      <stop stop-color="#1A7F72" stop-opacity=".46"/>
      <stop offset="1" stop-color="#1A7F72" stop-opacity="0"/>
    </linearGradient>
    <linearGradient id="paint50_linear" x1="21" x2="611.292" y1="83.3" y2="83.3" gradientUnits="userSpaceOnUse">
      <stop stop-color="#1A7F72" stop-opacity=".46"/>
      <stop offset="1" stop-color="#1A7F72" stop-opacity="0"/>
    </linearGradient>
    <linearGradient id="paint51_linear" x1="21" x2="611.292" y1="83.3" y2="83.3" gradientUnits="userSpaceOnUse">
      <stop stop-color="#1A7F72" stop-opacity=".46"/>
      <stop offset="1" stop-color="#1A7F72" stop-opacity="0"/>
    </linearGradient>
    <linearGradient id="paint52_linear" x1="21" x2="611.292" y1="83.3" y2="83.3" gradientUnits="userSpaceOnUse">
      <stop stop-color="#1A7F72" stop-opacity=".46"/>
      <stop offset="1" stop-color="#1A7F72" stop-opacity="0"/>
    </linearGradient>
    <linearGradient id="paint53_linear" x1="21" x2="611.292" y1="83.3" y2="83.3" gradientUnits="userSpaceOnUse">
      <stop stop-color="#1A7F72" stop-opacity=".46"/>
      <stop offset="1" stop-color="#1A7F72" stop-opacity="0"/>
    </linearGradient>
    <linearGradient id="paint54_linear" x1="21" x2="611.292" y1="83.3" y2="83.3" gradientUnits="userSpaceOnUse">
      <stop stop-color="#1A7F72" stop-opacity=".46"/>
      <stop offset="1" stop-color="#1A7F72" stop-opacity="0"/>
    </linearGradient>
    <linearGradient id="paint55_linear" x1="21" x2="611.292" y1="83.3" y2="83.3" gradientUnits="userSpaceOnUse">
      <stop stop-color="#1A7F72" stop-opacity=".46"/>
      <stop offset="1" stop-color="#1A7F72" stop-opacity="0"/>
    </linearGradient>
    <linearGradient id="paint56_linear" x1="21" x2="611.292" y1="83.3" y2="83.3" gradientUnits="userSpaceOnUse">
      <stop stop-color="#1A7F72" stop-opacity=".46"/>
      <stop offset="1" stop-color="#1A7F72" stop-opacity="0"/>
    </linearGradient>
    <linearGradient id="paint57_linear" x1="21" x2="611.292" y1="83.3" y2="83.3" gradientUnits="userSpaceOnUse">
      <stop stop-color="#1A7F72" stop-opacity=".46"/>
      <stop offset="1" stop-color="#1A7F72" stop-opacity="0"/>
    </linearGradient>
    <linearGradient id="paint58_linear" x1="21" x2="611.292" y1="83.3" y2="83.3" gradientUnits="userSpaceOnUse">
      <stop stop-color="#1A7F72" stop-opacity=".46"/>
      <stop offset="1" stop-color="#1A7F72" stop-opacity="0"/>
    </linearGradient>
    <linearGradient id="paint59_linear" x1="21" x2="611.292" y1="83.3" y2="83.3" gradientUnits="userSpaceOnUse">
      <stop stop-color="#1A7F72" stop-opacity=".46"/>
      <stop offset="1" stop-color="#1A7F72" stop-opacity="0"/>
    </linearGradient>
    <linearGradient id="paint60_linear" x1="21" x2="611.292" y1="83.3" y2="83.3" gradientUnits="userSpaceOnUse">
      <stop stop-color="#1A7F72" stop-opacity=".46"/>
      <stop offset="1" stop-color="#1A7F72" stop-opacity="0"/>
    </linearGradient>
    <linearGradient id="paint61_linear" x1="21" x2="611.292" y1="83.3" y2="83.3" gradientUnits="userSpaceOnUse">
      <stop stop-color="#1A7F72" stop-opacity=".46"/>
      <stop offset="1" stop-color="#1A7F72" stop-opacity="0"/>
    </linearGradient>
    <linearGradient id="paint62_linear" x1="21" x2="611.292" y1="83.3" y2="83.3" gradientUnits="userSpaceOnUse">
      <stop stop-color="#1A7F72" stop-opacity=".46"/>
      <stop offset="1" stop-color="#1A7F72" stop-opacity="0"/>
    </linearGradient>
    <linearGradient id="paint63_linear" x1="21" x2="611.292" y1="83.3" y2="83.3" gradientUnits="userSpaceOnUse">
      <stop stop-color="#1A7F72" stop-opacity=".46"/>
      <stop offset="1" stop-color="#1A7F72" stop-opacity="0"/>
    </linearGradient>
    <linearGradient id="paint64_linear" x1="21" x2="611.292" y1="83.3" y2="83.3" gradientUnits="userSpaceOnUse">
      <stop stop-color="#1A7F72" stop-opacity=".46"/>
      <stop offset="1" stop-color="#1A7F72" stop-opacity="0"/>
    </linearGradient>
    <linearGradient id="paint65_linear" x1="21" x2="611.292" y1="83.3" y2="83.3" gradientUnits="userSpaceOnUse">
      <stop stop-color="#1A7F72" stop-opacity=".46"/>
      <stop offset="1" stop-color="#1A7F72" stop-opacity="0"/>
    </linearGradient>
    <linearGradient id="paint66_linear" x1="21" x2="611.292" y1="83.3" y2="83.3" gradientUnits="userSpaceOnUse">
      <stop stop-color="#1A7F72" stop-opacity=".46"/>
      <stop offset="1" stop-color="#1A7F72" stop-opacity="0"/>
    </linearGradient>
    <linearGradient id="paint67_linear" x1="21" x2="611.292" y1="83.3" y2="83.3" gradientUnits="userSpaceOnUse">
      <stop stop-color="#1A7F72" stop-opacity=".46"/>
      <stop offset="1" stop-color="#1A7F72" stop-opacity="0"/>
    </linearGradient>
    <linearGradient id="paint68_linear" x1="21" x2="611.292" y1="83.3" y2="83.3" gradientUnits="userSpaceOnUse">
      <stop stop-color="#1A7F72" stop-opacity=".46"/>
      <stop offset="1" stop-color="#1A7F72" stop-opacity="0"/>
    </linearGradient>
    <linearGradient id="paint69_linear" x1="21" x2="611.292" y1="83.3" y2="83.3" gradientUnits="userSpaceOnUse">
      <stop stop-color="#1A7F72" stop-opacity=".46"/>
      <stop offset="1" stop-color="#1A7F72" stop-opacity="0"/>
    </linearGradient>
    <linearGradient id="paint70_linear" x1="21" x2="611.292" y1="83.3" y2="83.3" gradientUnits="userSpaceOnUse">
      <stop stop-color="#1A7F72" stop-opacity=".46"/>
      <stop offset="1" stop-color="#1A7F72" stop-opacity="0"/>
    </linearGradient>
    <linearGradient id="paint71_linear" x1="21" x2="611.292" y1="83.3" y2="83.3" gradientUnits="userSpaceOnUse">
      <stop stop-color="#1A7F72" stop-opacity=".46"/>
      <stop offset="1" stop-color="#1A7F72" stop-opacity="0"/>
    </linearGradient>
    <linearGradient id="paint72_linear" x1="21" x2="611.292" y1="83.3" y2="83.3" gradientUnits="userSpaceOnUse">
      <stop stop-color="#1A7F72" stop-opacity=".46"/>
      <stop offset="1" stop-color="#1A7F72" stop-opacity="0"/>
    </linearGradient>
    <linearGradient id="paint73_linear" x1="21" x2="611.292" y1="83.3" y2="83.3" gradientUnits="userSpaceOnUse">
      <stop stop-color="#1A7F72" stop-opacity=".46"/>
      <stop offset="1" stop-color="#1A7F72" stop-opacity="0"/>
    </linearGradient>
    <linearGradient id="paint74_linear" x1="21" x2="611.292" y1="83.3" y2="83.3" gradientUnits="userSpaceOnUse">
      <stop stop-color="#1A7F72" stop-opacity=".46"/>
      <stop offset="1" stop-color="#1A7F72" stop-opacity="0"/>
    </linearGradient>
    <linearGradient id="paint75_linear" x1="21" x2="611.292" y1="83.3" y2="83.3" gradientUnits="userSpaceOnUse">
      <stop stop-color="#1A7F72" stop-opacity=".46"/>
      <stop offset="1" stop-color="#1A7F72" stop-opacity="0"/>
    </linearGradient>
    <linearGradient id="paint76_linear" x1="21" x2="611.292" y1="83.3" y2="83.3" gradientUnits="userSpaceOnUse">
      <stop stop-color="#1A7F72" stop-opacity=".46"/>
      <stop offset="1" stop-color="#1A7F72" stop-opacity="0"/>
    </linearGradient>
    <linearGradient id="paint77_linear" x1="21" x2="611.292" y1="83.3" y2="83.3" gradientUnits="userSpaceOnUse">
      <stop stop-color="#1A7F72" stop-opacity=".46"/>
      <stop offset="1" stop-color="#1A7F72" stop-opacity="0"/>
    </linearGradient>
    <linearGradient id="paint78_linear" x1="21" x2="611.292" y1="83.3" y2="83.3" gradientUnits="userSpaceOnUse">
      <stop stop-color="#1A7F72" stop-opacity=".46"/>
      <stop offset="1" stop-color="#1A7F72" stop-opacity="0"/>
    </linearGradient>
    <linearGradient id="paint79_linear" x1="21" x2="611.292" y1="83.3" y2="83.3" gradientUnits="userSpaceOnUse">
      <stop stop-color="#1A7F72" stop-opacity=".46"/>
      <stop offset="1" stop-color="#1A7F72" stop-opacity="0"/>
    </linearGradient>
    <linearGradient id="paint80_linear" x1="21" x2="611.292" y1="83.3" y2="83.3" gradientUnits="userSpaceOnUse">
      <stop stop-color="#1A7F72" stop-opacity=".46"/>
      <stop offset="1" stop-color="#1A7F72" stop-opacity="0"/>
    </linearGradient>
    <linearGradient id="paint81_linear" x1="21" x2="611.292" y1="83.3" y2="83.3" gradientUnits="userSpaceOnUse">
      <stop stop-color="#1A7F72" stop-opacity=".46"/>
      <stop offset="1" stop-color="#1A7F72" stop-opacity="0"/>
    </linearGradient>
    <linearGradient id="paint82_linear" x1="21" x2="611.292" y1="83.3" y2="83.3" gradientUnits="userSpaceOnUse">
      <stop stop-color="#1A7F72" stop-opacity=".46"/>
      <stop offset="1" stop-color="#1A7F72" stop-opacity="0"/>
    </linearGradient>
    <linearGradient id="paint83_linear" x1="21" x2="611.292" y1="83.3" y2="83.3" gradientUnits="userSpaceOnUse">
      <stop stop-color="#1A7F72" stop-opacity=".46"/>
      <stop offset="1" stop-color="#1A7F72" stop-opacity="0"/>
    </linearGradient>
    <linearGradient id="paint84_linear" x1="21" x2="611.292" y1="83.3" y2="83.3" gradientUnits="userSpaceOnUse">
      <stop stop-color="#1A7F72" stop-opacity=".46"/>
      <stop offset="1" stop-color="#1A7F72" stop-opacity="0"/>
    </linearGradient>
    <linearGradient id="paint85_linear" x1="21" x2="611.292" y1="83.3" y2="83.3" gradientUnits="userSpaceOnUse">
      <stop stop-color="#1A7F72" stop-opacity=".46"/>
      <stop offset="1" stop-color="#1A7F72" stop-opacity="0"/>
    </linearGradient>
    <linearGradient id="paint86_linear" x1="21" x2="611.292" y1="83.3" y2="83.3" gradientUnits="userSpaceOnUse">
      <stop stop-color="#1A7F72" stop-opacity=".46"/>
      <stop offset="1" stop-color="#1A7F72" stop-opacity="0"/>
    </linearGradient>
    <linearGradient id="paint87_linear" x1="21" x2="611.292" y1="83.3" y2="83.3" gradientUnits="userSpaceOnUse">
      <stop stop-color="#1A7F72" stop-opacity=".46"/>
      <stop offset="1" stop-color="#1A7F72" stop-opacity="0"/>
    </linearGradient>
    <linearGradient id="paint88_linear" x1="21" x2="611.292" y1="83.3" y2="83.3" gradientUnits="userSpaceOnUse">
      <stop stop-color="#1A7F72" stop-opacity=".46"/>
      <stop offset="1" stop-color="#1A7F72" stop-opacity="0"/>
    </linearGradient>
    <linearGradient id="paint89_linear" x1="21" x2="611.292" y1="83.3" y2="83.3" gradientUnits="userSpaceOnUse">
      <stop stop-color="#1A7F72" stop-opacity=".46"/>
      <stop offset="1" stop-color="#1A7F72" stop-opacity="0"/>
    </linearGradient>
    <linearGradient id="paint90_linear" x1="21" x2="611.292" y1="83.3" y2="83.3" gradientUnits="userSpaceOnUse">
      <stop stop-color="#1A7F72" stop-opacity=".46"/>
      <stop offset="1" stop-color="#1A7F72" stop-opacity="0"/>
    </linearGradient>
    <linearGradient id="paint91_linear" x1="21" x2="611.292" y1="83.3" y2="83.3" gradientUnits="userSpaceOnUse">
      <stop stop-color="#1A7F72" stop-opacity=".46"/>
      <stop offset="1" stop-color="#1A7F72" stop-opacity="0"/>
    </linearGradient>
    <linearGradient id="paint92_linear" x1="21" x2="611.292" y1="83.3" y2="83.3" gradientUnits="userSpaceOnUse">
      <stop stop-color="#1A7F72" stop-opacity=".46"/>
      <stop offset="1" stop-color="#1A7F72" stop-opacity="0"/>
    </linearGradient>
    <linearGradient id="paint93_linear" x1="21" x2="611.292" y1="83.3" y2="83.3" gradientUnits="userSpaceOnUse">
      <stop stop-color="#1A7F72" stop-opacity=".46"/>
      <stop offset="1" stop-color="#1A7F72" stop-opacity="0"/>
    </linearGradient>
    <linearGradient id="paint94_linear" x1="21" x2="611.292" y1="83.3" y2="83.3" gradientUnits="userSpaceOnUse">
      <stop stop-color="#1A7F72" stop-opacity=".46"/>
      <stop offset="1" stop-color="#1A7F72" stop-opacity="0"/>
    </linearGradient>
    <linearGradient id="paint95_linear" x1="21" x2="611.292" y1="83.3" y2="83.3" gradientUnits="userSpaceOnUse">
      <stop stop-color="#1A7F72" stop-opacity=".46"/>
      <stop offset="1" stop-color="#1A7F72" stop-opacity="0"/>
    </linearGradient>
    <linearGradient id="paint96_linear" x1="21" x2="611.292" y1="83.3" y2="83.3" gradientUnits="userSpaceOnUse">
      <stop stop-color="#1A7F72" stop-opacity=".46"/>
      <stop offset="1" stop-color="#1A7F72" stop-opacity="0"/>
    </linearGradient>
    <linearGradient id="paint97_linear" x1="21" x2="611.292" y1="83.3" y2="83.3" gradientUnits="userSpaceOnUse">
      <stop stop-color="#1A7F72" stop-opacity=".46"/>
      <stop offset="1" stop-color="#1A7F72" stop-opacity="0"/>
    </linearGradient>
    <linearGradient id="paint98_linear" x1="21" x2="611.292" y1="83.3" y2="83.3" gradientUnits="userSpaceOnUse">
      <stop stop-color="#1A7F72" stop-opacity=".46"/>
      <stop offset="1" stop-color="#1A7F72" stop-opacity="0"/>
    </linearGradient>
    <linearGradient id="paint99_linear" x1="21" x2="611.292" y1="83.3" y2="83.3" gradientUnits="userSpaceOnUse">
      <stop stop-color="#1A7F72" stop-opacity=".46"/>
      <stop offset="1" stop-color="#1A7F72" stop-opacity="0"/>
    </linearGradient>
    <linearGradient id="paint100_linear" x1="21" x2="611.292" y1="83.3" y2="83.3" gradientUnits="userSpaceOnUse">
      <stop stop-color="#1A7F72" stop-opacity=".46"/>
      <stop offset="1" stop-color="#1A7F72" stop-opacity="0"/>
    </linearGradient>
    <linearGradient id="paint101_linear" x1="21" x2="611.292" y1="83.3" y2="83.3" gradientUnits="userSpaceOnUse">
      <stop stop-color="#1A7F72" stop-opacity=".46"/>
      <stop offset="1" stop-color="#1A7F72" stop-opacity="0"/>
    </linearGradient>
    <linearGradient id="paint102_linear" x1="21" x2="611.292" y1="83.3" y2="83.3" gradientUnits="userSpaceOnUse">
      <stop stop-color="#1A7F72" stop-opacity=".46"/>
      <stop offset="1" stop-color="#1A7F72" stop-opacity="0"/>
    </linearGradient>
    <linearGradient id="paint103_linear" x1="21" x2="611.292" y1="83.3" y2="83.3" gradientUnits="userSpaceOnUse">
      <stop stop-color="#1A7F72" stop-opacity=".46"/>
      <stop offset="1" stop-color="#1A7F72" stop-opacity="0"/>
    </linearGradient>
    <linearGradient id="paint104_linear" x1="21" x2="611.292" y1="83.3" y2="83.3" gradientUnits="userSpaceOnUse">
      <stop stop-color="#1A7F72" stop-opacity=".46"/>
      <stop offset="1" stop-color="#1A7F72" stop-opacity="0"/>
    </linearGradient>
    <linearGradient id="paint105_linear" x1="21" x2="611.292" y1="83.3" y2="83.3" gradientUnits="userSpaceOnUse">
      <stop stop-color="#1A7F72" stop-opacity=".46"/>
      <stop offset="1" stop-color="#1A7F72" stop-opacity="0"/>
    </linearGradient>
    <linearGradient id="paint106_linear" x1="21" x2="611.292" y1="83.3" y2="83.3" gradientUnits="userSpaceOnUse">
      <stop stop-color="#1A7F72" stop-opacity=".46"/>
      <stop offset="1" stop-color="#1A7F72" stop-opacity="0"/>
    </linearGradient>
    <linearGradient id="paint107_linear" x1="21" x2="611.292" y1="83.3" y2="83.3" gradientUnits="userSpaceOnUse">
      <stop stop-color="#1A7F72" stop-opacity=".46"/>
      <stop offset="1" stop-color="#1A7F72" stop-opacity="0"/>
    </linearGradient>
    <linearGradient id="paint108_linear" x1="21" x2="611.292" y1="83.3" y2="83.3" gradientUnits="userSpaceOnUse">
      <stop stop-color="#1A7F72" stop-opacity=".46"/>
      <stop offset="1" stop-color="#1A7F72" stop-opacity="0"/>
    </linearGradient>
    <linearGradient id="paint109_linear" x1="21" x2="611.292" y1="83.3" y2="83.3" gradientUnits="userSpaceOnUse">
      <stop stop-color="#1A7F72" stop-opacity=".46"/>
      <stop offset="1" stop-color="#1A7F72" stop-opacity="0"/>
    </linearGradient>
    <linearGradient id="paint110_linear" x1="21" x2="611.292" y1="83.3" y2="83.3" gradientUnits="userSpaceOnUse">
      <stop stop-color="#1A7F72" stop-opacity=".46"/>
      <stop offset="1" stop-color="#1A7F72" stop-opacity="0"/>
    </linearGradient>
    <linearGradient id="paint111_linear" x1="21" x2="611.292" y1="83.3" y2="83.3" gradientUnits="userSpaceOnUse">
      <stop stop-color="#1A7F72" stop-opacity=".46"/>
      <stop offset="1" stop-color="#1A7F72" stop-opacity="0"/>
    </linearGradient>
    <linearGradient id="paint112_linear" x1="21" x2="611.292" y1="83.3" y2="83.3" gradientUnits="userSpaceOnUse">
      <stop stop-color="#1A7F72" stop-opacity=".46"/>
      <stop offset="1" stop-color="#1A7F72" stop-opacity="0"/>
    </linearGradient>
    <linearGradient id="paint113_linear" x1="21" x2="611.292" y1="83.3" y2="83.3" gradientUnits="userSpaceOnUse">
      <stop stop-color="#1A7F72" stop-opacity=".46"/>
      <stop offset="1" stop-color="#1A7F72" stop-opacity="0"/>
    </linearGradient>
    <linearGradient id="paint114_linear" x1="21" x2="611.292" y1="83.3" y2="83.3" gradientUnits="userSpaceOnUse">
      <stop stop-color="#1A7F72" stop-opacity=".46"/>
      <stop offset="1" stop-color="#1A7F72" stop-opacity="0"/>
    </linearGradient>
    <linearGradient id="paint115_linear" x1="21" x2="611.292" y1="83.3" y2="83.3" gradientUnits="userSpaceOnUse">
      <stop stop-color="#1A7F72" stop-opacity=".46"/>
      <stop offset="1" stop-color="#1A7F72" stop-opacity="0"/>
    </linearGradient>
    <linearGradient id="paint116_linear" x1="21" x2="611.292" y1="83.3" y2="83.3" gradientUnits="userSpaceOnUse">
      <stop stop-color="#1A7F72" stop-opacity=".46"/>
      <stop offset="1" stop-color="#1A7F72" stop-opacity="0"/>
    </linearGradient>
    <linearGradient id="paint117_linear" x1="21" x2="611.292" y1="83.3" y2="83.3" gradientUnits="userSpaceOnUse">
      <stop stop-color="#1A7F72" stop-opacity=".46"/>
      <stop offset="1" stop-color="#1A7F72" stop-opacity="0"/>
    </linearGradient>
    <linearGradient id="paint118_linear" x1="21" x2="611.292" y1="83.3" y2="83.3" gradientUnits="userSpaceOnUse">
      <stop stop-color="#1A7F72" stop-opacity=".46"/>
      <stop offset="1" stop-color="#1A7F72" stop-opacity="0"/>
    </linearGradient>
    <linearGradient id="paint119_linear" x1="21" x2="611.292" y1="83.3" y2="83.3" gradientUnits="userSpaceOnUse">
      <stop stop-color="#1A7F72" stop-opacity=".46"/>
      <stop offset="1" stop-color="#1A7F72" stop-opacity="0"/>
    </linearGradient>
    <linearGradient id="paint120_linear" x1="21" x2="611.292" y1="83.3" y2="83.3" gradientUnits="userSpaceOnUse">
      <stop stop-color="#1A7F72" stop-opacity=".46"/>
      <stop offset="1" stop-color="#1A7F72" stop-opacity="0"/>
    </linearGradient>
    <linearGradient id="paint121_linear" x1="21" x2="611.292" y1="83.3" y2="83.3" gradientUnits="userSpaceOnUse">
      <stop stop-color="#1A7F72" stop-opacity=".46"/>
      <stop offset="1" stop-color="#1A7F72" stop-opacity="0"/>
    </linearGradient>
    <linearGradient id="paint122_linear" x1="21" x2="611.292" y1="83.3" y2="83.3" gradientUnits="userSpaceOnUse">
      <stop stop-color="#1A7F72" stop-opacity=".46"/>
      <stop offset="1" stop-color="#1A7F72" stop-opacity="0"/>
    </linearGradient>
    <linearGradient id="paint123_linear" x1="21" x2="611.292" y1="83.3" y2="83.3" gradientUnits="userSpaceOnUse">
      <stop stop-color="#1A7F72" stop-opacity=".46"/>
      <stop offset="1" stop-color="#1A7F72" stop-opacity="0"/>
    </linearGradient>
    <linearGradient id="paint124_linear" x1="21" x2="611.292" y1="83.3" y2="83.3" gradientUnits="userSpaceOnUse">
      <stop stop-color="#1A7F72" stop-opacity=".46"/>
      <stop offset="1" stop-color="#1A7F72" stop-opacity="0"/>
    </linearGradient>
    <linearGradient id="paint125_linear" x1="21" x2="611.292" y1="83.3" y2="83.3" gradientUnits="userSpaceOnUse">
      <stop stop-color="#1A7F72" stop-opacity=".46"/>
      <stop offset="1" stop-color="#1A7F72" stop-opacity="0"/>
    </linearGradient>
    <linearGradient id="paint126_linear" x1="21" x2="611.292" y1="83.3" y2="83.3" gradientUnits="userSpaceOnUse">
      <stop stop-color="#1A7F72" stop-opacity=".46"/>
      <stop offset="1" stop-color="#1A7F72" stop-opacity="0"/>
    </linearGradient>
    <linearGradient id="paint127_linear" x1="21" x2="611.292" y1="83.3" y2="83.3" gradientUnits="userSpaceOnUse">
      <stop stop-color="#1A7F72" stop-opacity=".46"/>
      <stop offset="1" stop-color="#1A7F72" stop-opacity="0"/>
    </linearGradient>
    <linearGradient id="paint128_linear" x1="21" x2="611.292" y1="83.3" y2="83.3" gradientUnits="userSpaceOnUse">
      <stop stop-color="#1A7F72" stop-opacity=".46"/>
      <stop offset="1" stop-color="#1A7F72" stop-opacity="0"/>
    </linearGradient>
    <linearGradient id="paint129_linear" x1="21" x2="611.292" y1="83.3" y2="83.3" gradientUnits="userSpaceOnUse">
      <stop stop-color="#1A7F72" stop-opacity=".46"/>
      <stop offset="1" stop-color="#1A7F72" stop-opacity="0"/>
    </linearGradient>
    <linearGradient id="paint130_linear" x1="21" x2="611.292" y1="83.3" y2="83.3" gradientUnits="userSpaceOnUse">
      <stop stop-color="#1A7F72" stop-opacity=".46"/>
      <stop offset="1" stop-color="#1A7F72" stop-opacity="0"/>
    </linearGradient>
    <linearGradient id="paint131_linear" x1="21" x2="611.292" y1="83.3" y2="83.3" gradientUnits="userSpaceOnUse">
      <stop stop-color="#1A7F72" stop-opacity=".46"/>
      <stop offset="1" stop-color="#1A7F72" stop-opacity="0"/>
    </linearGradient>
    <linearGradient id="paint132_linear" x1="21" x2="611.292" y1="83.3" y2="83.3" gradientUnits="userSpaceOnUse">
      <stop stop-color="#1A7F72" stop-opacity=".46"/>
      <stop offset="1" stop-color="#1A7F72" stop-opacity="0"/>
    </linearGradient>
    <linearGradient id="paint133_linear" x1="21" x2="611.292" y1="83.3" y2="83.3" gradientUnits="userSpaceOnUse">
      <stop stop-color="#1A7F72" stop-opacity=".46"/>
      <stop offset="1" stop-color="#1A7F72" stop-opacity="0"/>
    </linearGradient>
    <linearGradient id="paint134_linear" x1="21" x2="611.292" y1="83.3" y2="83.3" gradientUnits="userSpaceOnUse">
      <stop stop-color="#1A7F72" stop-opacity=".46"/>
      <stop offset="1" stop-color="#1A7F72" stop-opacity="0"/>
    </linearGradient>
    <linearGradient id="paint135_linear" x1="21" x2="611.292" y1="83.3" y2="83.3" gradientUnits="userSpaceOnUse">
      <stop stop-color="#1A7F72" stop-opacity=".46"/>
      <stop offset="1" stop-color="#1A7F72" stop-opacity="0"/>
    </linearGradient>
    <linearGradient id="paint136_linear" x1="21" x2="611.292" y1="83.3" y2="83.3" gradientUnits="userSpaceOnUse">
      <stop stop-color="#1A7F72" stop-opacity=".46"/>
      <stop offset="1" stop-color="#1A7F72" stop-opacity="0"/>
    </linearGradient>
    <linearGradient id="paint137_linear" x1="21" x2="611.292" y1="83.3" y2="83.3" gradientUnits="userSpaceOnUse">
      <stop stop-color="#1A7F72" stop-opacity=".46"/>
      <stop offset="1" stop-color="#1A7F72" stop-opacity="0"/>
    </linearGradient>
    <linearGradient id="paint138_linear" x1="21" x2="611.292" y1="83.3" y2="83.3" gradientUnits="userSpaceOnUse">
      <stop stop-color="#1A7F72" stop-opacity=".46"/>
      <stop offset="1" stop-color="#1A7F72" stop-opacity="0"/>
    </linearGradient>
    <linearGradient id="paint139_linear" x1="21" x2="611.292" y1="83.3" y2="83.3" gradientUnits="userSpaceOnUse">
      <stop stop-color="#1A7F72" stop-opacity=".46"/>
      <stop offset="1" stop-color="#1A7F72" stop-opacity="0"/>
    </linearGradient>
    <linearGradient id="paint140_linear" x1="21" x2="611.292" y1="83.3" y2="83.3" gradientUnits="userSpaceOnUse">
      <stop stop-color="#1A7F72" stop-opacity=".46"/>
      <stop offset="1" stop-color="#1A7F72" stop-opacity="0"/>
    </linearGradient>
    <linearGradient id="paint141_linear" x1="21" x2="611.292" y1="83.3" y2="83.3" gradientUnits="userSpaceOnUse">
      <stop stop-color="#1A7F72" stop-opacity=".46"/>
      <stop offset="1" stop-color="#1A7F72" stop-opacity="0"/>
    </linearGradient>
    <linearGradient id="paint142_linear" x1="21" x2="611.292" y1="83.3" y2="83.3" gradientUnits="userSpaceOnUse">
      <stop stop-color="#1A7F72" stop-opacity=".46"/>
      <stop offset="1" stop-color="#1A7F72" stop-opacity="0"/>
    </linearGradient>
    <linearGradient id="paint143_linear" x1="21" x2="611.292" y1="83.3" y2="83.3" gradientUnits="userSpaceOnUse">
      <stop stop-color="#1A7F72" stop-opacity=".46"/>
      <stop offset="1" stop-color="#1A7F72" stop-opacity="0"/>
    </linearGradient>
    <linearGradient id="paint144_linear" x1="21" x2="611.292" y1="83.3" y2="83.3" gradientUnits="userSpaceOnUse">
      <stop stop-color="#1A7F72" stop-opacity=".46"/>
      <stop offset="1" stop-color="#1A7F72" stop-opacity="0"/>
    </linearGradient>
    <linearGradient id="paint145_linear" x1="21" x2="611.292" y1="83.3" y2="83.3" gradientUnits="userSpaceOnUse">
      <stop stop-color="#1A7F72" stop-opacity=".46"/>
      <stop offset="1" stop-color="#1A7F72" stop-opacity="0"/>
    </linearGradient>
    <linearGradient id="paint146_linear" x1="21" x2="611.292" y1="83.3" y2="83.3" gradientUnits="userSpaceOnUse">
      <stop stop-color="#1A7F72" stop-opacity=".46"/>
      <stop offset="1" stop-color="#1A7F72" stop-opacity="0"/>
    </linearGradient>
    <linearGradient id="paint147_linear" x1="21" x2="611.292" y1="83.3" y2="83.3" gradientUnits="userSpaceOnUse">
      <stop stop-color="#1A7F72" stop-opacity=".46"/>
      <stop offset="1" stop-color="#1A7F72" stop-opacity="0"/>
    </linearGradient>
    <linearGradient id="paint148_linear" x1="21" x2="611.292" y1="83.3" y2="83.3" gradientUnits="userSpaceOnUse">
      <stop stop-color="#1A7F72" stop-opacity=".46"/>
      <stop offset="1" stop-color="#1A7F72" stop-opacity="0"/>
    </linearGradient>
    <linearGradient id="paint149_linear" x1="21" x2="611.292" y1="83.3" y2="83.3" gradientUnits="userSpaceOnUse">
      <stop stop-color="#1A7F72" stop-opacity=".46"/>
      <stop offset="1" stop-color="#1A7F72" stop-opacity="0"/>
    </linearGradient>
    <linearGradient id="paint150_linear" x1="21" x2="611.292" y1="83.3" y2="83.3" gradientUnits="userSpaceOnUse">
      <stop stop-color="#1A7F72" stop-opacity=".46"/>
      <stop offset="1" stop-color="#1A7F72" stop-opacity="0"/>
    </linearGradient>
    <linearGradient id="paint151_linear" x1="21" x2="611.292" y1="83.3" y2="83.3" gradientUnits="userSpaceOnUse">
      <stop stop-color="#1A7F72" stop-opacity=".46"/>
      <stop offset="1" stop-color="#1A7F72" stop-opacity="0"/>
    </linearGradient>
    <linearGradient id="paint152_linear" x1="21" x2="611.292" y1="83.3" y2="83.3" gradientUnits="userSpaceOnUse">
      <stop stop-color="#1A7F72" stop-opacity=".46"/>
      <stop offset="1" stop-color="#1A7F72" stop-opacity="0"/>
    </linearGradient>
    <linearGradient id="paint153_linear" x1="21" x2="611.292" y1="83.3" y2="83.3" gradientUnits="userSpaceOnUse">
      <stop stop-color="#1A7F72" stop-opacity=".46"/>
      <stop offset="1" stop-color="#1A7F72" stop-opacity="0"/>
    </linearGradient>
    <linearGradient id="paint154_linear" x1="21" x2="611.292" y1="83.3" y2="83.3" gradientUnits="userSpaceOnUse">
      <stop stop-color="#1A7F72" stop-opacity=".46"/>
      <stop offset="1" stop-color="#1A7F72" stop-opacity="0"/>
    </linearGradient>
    <linearGradient id="paint155_linear" x1="21" x2="611.292" y1="83.3" y2="83.3" gradientUnits="userSpaceOnUse">
      <stop stop-color="#1A7F72" stop-opacity=".46"/>
      <stop offset="1" stop-color="#1A7F72" stop-opacity="0"/>
    </linearGradient>
    <linearGradient id="paint156_linear" x1="21" x2="611.292" y1="83.3" y2="83.3" gradientUnits="userSpaceOnUse">
      <stop stop-color="#1A7F72" stop-opacity=".46"/>
      <stop offset="1" stop-color="#1A7F72" stop-opacity="0"/>
    </linearGradient>
    <linearGradient id="paint157_linear" x1="21" x2="611.292" y1="83.3" y2="83.3" gradientUnits="userSpaceOnUse">
      <stop stop-color="#1A7F72" stop-opacity=".46"/>
      <stop offset="1" stop-color="#1A7F72" stop-opacity="0"/>
    </linearGradient>
    <linearGradient id="paint158_linear" x1="21" x2="611.292" y1="83.3" y2="83.3" gradientUnits="userSpaceOnUse">
      <stop stop-color="#1A7F72" stop-opacity=".46"/>
      <stop offset="1" stop-color="#1A7F72" stop-opacity="0"/>
    </linearGradient>
    <linearGradient id="paint159_linear" x1="21" x2="611.292" y1="83.3" y2="83.3" gradientUnits="userSpaceOnUse">
      <stop stop-color="#1A7F72" stop-opacity=".46"/>
      <stop offset="1" stop-color="#1A7F72" stop-opacity="0"/>
    </linearGradient>
    <linearGradient id="paint160_linear" x1="21" x2="611.292" y1="83.3" y2="83.3" gradientUnits="userSpaceOnUse">
      <stop stop-color="#1A7F72" stop-opacity=".46"/>
      <stop offset="1" stop-color="#1A7F72" stop-opacity="0"/>
    </linearGradient>
    <linearGradient id="paint161_linear" x1="21" x2="611.292" y1="83.3" y2="83.3" gradientUnits="userSpaceOnUse">
      <stop stop-color="#1A7F72" stop-opacity=".46"/>
      <stop offset="1" stop-color="#1A7F72" stop-opacity="0"/>
    </linearGradient>
    <linearGradient id="paint162_linear" x1="21" x2="611.292" y1="83.3" y2="83.3" gradientUnits="userSpaceOnUse">
      <stop stop-color="#1A7F72" stop-opacity=".46"/>
      <stop offset="1" stop-color="#1A7F72" stop-opacity="0"/>
    </linearGradient>
    <linearGradient id="paint163_linear" x1="21" x2="611.292" y1="83.3" y2="83.3" gradientUnits="userSpaceOnUse">
      <stop stop-color="#1A7F72" stop-opacity=".46"/>
      <stop offset="1" stop-color="#1A7F72" stop-opacity="0"/>
    </linearGradient>
    <linearGradient id="paint164_linear" x1="21" x2="611.292" y1="83.3" y2="83.3" gradientUnits="userSpaceOnUse">
      <stop stop-color="#1A7F72" stop-opacity=".46"/>
      <stop offset="1" stop-color="#1A7F72" stop-opacity="0"/>
    </linearGradient>
    <linearGradient id="paint165_linear" x1="21" x2="611.292" y1="83.3" y2="83.3" gradientUnits="userSpaceOnUse">
      <stop stop-color="#1A7F72" stop-opacity=".46"/>
      <stop offset="1" stop-color="#1A7F72" stop-opacity="0"/>
    </linearGradient>
    <linearGradient id="paint166_linear" x1="21" x2="611.292" y1="83.3" y2="83.3" gradientUnits="userSpaceOnUse">
      <stop stop-color="#1A7F72" stop-opacity=".46"/>
      <stop offset="1" stop-color="#1A7F72" stop-opacity="0"/>
    </linearGradient>
    <linearGradient id="paint167_linear" x1="21" x2="611.292" y1="83.3" y2="83.3" gradientUnits="userSpaceOnUse">
      <stop stop-color="#1A7F72" stop-opacity=".46"/>
      <stop offset="1" stop-color="#1A7F72" stop-opacity="0"/>
    </linearGradient>
    <linearGradient id="paint168_linear" x1="21" x2="611.292" y1="83.3" y2="83.3" gradientUnits="userSpaceOnUse">
      <stop stop-color="#1A7F72" stop-opacity=".46"/>
      <stop offset="1" stop-color="#1A7F72" stop-opacity="0"/>
    </linearGradient>
    <linearGradient id="paint169_linear" x1="21" x2="611.292" y1="83.3" y2="83.3" gradientUnits="userSpaceOnUse">
      <stop stop-color="#1A7F72" stop-opacity=".46"/>
      <stop offset="1" stop-color="#1A7F72" stop-opacity="0"/>
    </linearGradient>
    <linearGradient id="paint170_linear" x1="21" x2="611.292" y1="83.3" y2="83.3" gradientUnits="userSpaceOnUse">
      <stop stop-color="#1A7F72" stop-opacity=".46"/>
      <stop offset="1" stop-color="#1A7F72" stop-opacity="0"/>
    </linearGradient>
    <linearGradient id="paint171_linear" x1="21" x2="611.292" y1="83.3" y2="83.3" gradientUnits="userSpaceOnUse">
      <stop stop-color="#1A7F72" stop-opacity=".46"/>
      <stop offset="1" stop-color="#1A7F72" stop-opacity="0"/>
    </linearGradient>
    <linearGradient id="paint172_linear" x1="21" x2="611.292" y1="83.3" y2="83.3" gradientUnits="userSpaceOnUse">
      <stop stop-color="#1A7F72" stop-opacity=".46"/>
      <stop offset="1" stop-color="#1A7F72" stop-opacity="0"/>
    </linearGradient>
    <linearGradient id="paint173_linear" x1="21" x2="611.292" y1="83.3" y2="83.3" gradientUnits="userSpaceOnUse">
      <stop stop-color="#1A7F72" stop-opacity=".46"/>
      <stop offset="1" stop-color="#1A7F72" stop-opacity="0"/>
    </linearGradient>
    <linearGradient id="paint174_linear" x1="21" x2="611.292" y1="83.3" y2="83.3" gradientUnits="userSpaceOnUse">
      <stop stop-color="#1A7F72" stop-opacity=".46"/>
      <stop offset="1" stop-color="#1A7F72" stop-opacity="0"/>
    </linearGradient>
    <linearGradient id="paint175_linear" x1="21" x2="611.292" y1="83.3" y2="83.3" gradientUnits="userSpaceOnUse">
      <stop stop-color="#1A7F72" stop-opacity=".46"/>
      <stop offset="1" stop-color="#1A7F72" stop-opacity="0"/>
    </linearGradient>
  </defs>
</svg>
